<svg width="24" height="24" viewBox="0 0 24 24" fill="none" xmlns="http://www.w3.org/2000/svg">
<path fill-rule="evenodd" clip-rule="evenodd" d="M18.2283 4.72205C19.6421 6.64869 19.6056 9.12854 19.5662 11.7995C19.5596 12.2452 19.553 12.6962 19.553 13.1509C20.7805 15.2554 23.0006 19.4644 22.061 19.4644H1.95621C0.967772 19.4644 3.23465 15.2619 4.49164 13.1607C4.49164 12.6776 4.48347 12.1985 4.47541 11.7253C4.43041 9.084 4.38857 6.62863 5.78766 4.72205C7.43739 2.47392 9.67491 1.21094 12.008 1.21094C14.3411 1.21094 16.5786 2.47392 18.2283 4.72205ZM18.523 13.1509V13.4293L18.6633 13.6698C19.2682 14.707 20.1101 16.2504 20.6801 17.519C20.8361 17.866 20.9632 18.1741 21.0585 18.4344H2.9388C3.03386 18.1776 3.16129 17.873 3.31866 17.5287C3.89667 16.2642 4.75632 14.7246 5.37555 13.6894L5.52164 13.4452V13.1607C5.52164 12.6345 5.513 12.1321 5.50468 11.6478C5.48652 10.5912 5.46985 9.62056 5.54753 8.67664C5.65746 7.34094 5.95102 6.24041 6.61806 5.33142C8.11656 3.28939 10.0691 2.24094 12.008 2.24094C13.9469 2.24094 15.8994 3.28939 17.3979 5.33142C18.0672 6.24344 18.3667 7.3447 18.4832 8.67701C18.5676 9.64184 18.5528 10.6402 18.5367 11.7288C18.53 12.1855 18.523 12.6582 18.523 13.1509Z" fill="#4E5863"/>
<path d="M9.479 21.7584C9.19458 21.7584 8.964 21.989 8.964 22.2734C8.964 22.5579 9.19458 22.7884 9.479 22.7884H14.5156C14.8 22.7884 15.0306 22.5579 15.0306 22.2734C15.0306 21.989 14.8 21.7584 14.5156 21.7584H9.479Z" fill="#4E5863"/>
<path d="M21.5338 4.46191C21.5338 6.25738 20.0782 7.71289 18.2828 7.71289C16.4873 7.71289 15.0318 6.25738 15.0318 4.46191C15.0318 2.66645 16.4873 1.21094 18.2828 1.21094C20.0782 1.21094 21.5338 2.66645 21.5338 4.46191Z" fill="#E4432F"/>
</svg>
