<svg width="49" height="50" viewBox="0 0 49 50" fill="none" xmlns="http://www.w3.org/2000/svg">
<path d="M18.1639 11.8398H29.064C29.5029 11.8398 29.9238 12.0142 30.2342 12.3245L35.8849 17.9738C36.1953 18.2842 36.3698 18.7052 36.3698 19.1443V33.5499C36.3698 34.4639 35.6288 35.2049 34.7147 35.2049H18.1639C17.2498 35.2049 16.5088 34.4639 16.5088 33.5499V13.4949C16.5088 12.5808 17.2498 11.8398 18.1639 11.8398Z" stroke="#4E5863" stroke-width="1.2" stroke-linecap="round"/>
<path d="M14.8543 14.7363H25.7544C26.1933 14.7363 26.6142 14.9106 26.9246 15.221L32.5753 20.8703C32.8858 21.1807 33.0602 21.6017 33.0602 22.0407V36.4463C33.0602 37.3604 32.3192 38.1014 31.4051 38.1014H14.8543C13.9402 38.1014 13.1992 37.3604 13.1992 36.4463V16.3914C13.1992 15.4773 13.9402 14.7363 14.8543 14.7363Z" fill="white"/>
<path d="M18.3455 27.5697H27.9139M18.3455 31.6169H27.9139M25.7544 14.7363H14.8543C13.9402 14.7363 13.1992 15.4773 13.1992 16.3914V36.4463C13.1992 37.3604 13.9402 38.1014 14.8543 38.1014H31.4051C32.3192 38.1014 33.0602 37.3604 33.0602 36.4463V22.0407C33.0602 21.6017 32.8858 21.1807 32.5753 20.8703L26.9246 15.221C26.6142 14.9106 26.1933 14.7363 25.7544 14.7363Z" stroke="#4E5863" stroke-width="1.2" stroke-linecap="round"/>
</svg>
