<svg width="35" height="35" viewBox="0 0 35 35" fill="none" xmlns="http://www.w3.org/2000/svg">
<path d="M18.9229 10.6709C19.1447 10.4491 19.1447 10.0894 18.9229 9.86755C18.7011 9.64571 18.3414 9.64571 18.1196 9.86755L10.517 17.4701C10.2951 17.692 10.2951 18.0517 10.517 18.2735L18.1196 25.8761C18.3414 26.0979 18.7011 26.0979 18.9229 25.8761C19.1447 25.6542 19.1447 25.2946 18.9229 25.0727L11.722 17.8718L18.9229 10.6709Z" fill="#4E5863"/>
<path d="M25.4008 10.6709C25.6226 10.4491 25.6226 10.0894 25.4008 9.86755C25.1789 9.64571 24.8193 9.64571 24.5974 9.86755L16.9948 17.4701C16.773 17.692 16.773 18.0517 16.9948 18.2735L24.5974 25.8761C24.8193 26.0979 25.1789 26.0979 25.4008 25.8761C25.6226 25.6542 25.6226 25.2946 25.4008 25.0727L18.1999 17.8718L25.4008 10.6709Z" fill="#4E5863"/>
</svg>
