<svg width="35" height="35" viewBox="0 0 35 35" fill="none" xmlns="http://www.w3.org/2000/svg">
<path d="M18.3585 26.233H11.7343C11.6559 26.233 11.5923 26.1694 11.5923 26.091V9.64982C11.5923 9.57139 11.6559 9.50781 11.7343 9.50781H17.9144C21.4033 9.50781 23.1794 11.0302 23.1794 14.0327C23.1794 15.6224 22.434 16.7548 21.2011 17.3389C21.0726 17.3997 21.0819 17.6149 21.2151 17.6645C22.7529 18.236 23.6657 19.6415 23.6657 21.4332C23.6657 24.5626 21.9319 26.233 18.3585 26.233ZM20.5575 21.2852C20.5575 19.5937 19.6483 18.9593 17.7453 18.9593H14.8425C14.7641 18.9593 14.7005 19.0229 14.7005 19.1013V23.4479C14.7005 23.5264 14.7641 23.5899 14.8425 23.5899H17.7453C19.6483 23.5899 20.5575 22.9768 20.5575 21.2852ZM20.0923 14.2441C20.0923 12.6372 19.1197 12.1509 17.3435 12.1509H14.8425C14.7641 12.1509 14.7005 12.2144 14.7005 12.2929V16.1954C14.7005 16.2739 14.7641 16.3374 14.8425 16.3374H17.3435C19.1197 16.3374 20.0923 15.8511 20.0923 14.2441Z" fill="currentColor"/>
</svg>
