<svg width="24" height="24" viewBox="0 0 24 24" fill="none" xmlns="http://www.w3.org/2000/svg">
<path d="M20.7704 8.78825V18.7824C20.7704 19.1138 20.5018 19.3824 20.1704 19.3824H3.82959C3.49822 19.3824 3.22959 19.1138 3.22959 18.7824V8.78825C3.22959 8.45688 3.49822 8.18825 3.82959 8.18825H7.63803C8.02638 8.18825 8.37093 7.93916 8.49267 7.57039L9.18732 5.4662C9.26848 5.22036 9.49818 5.0543 9.75708 5.0543H14.2762C14.5379 5.0543 14.7694 5.22392 14.8483 5.47345L15.5077 7.55952C15.626 7.93382 15.9733 8.18825 16.3658 8.18825H20.1704C20.5018 8.18825 20.7704 8.45688 20.7704 8.78825Z" stroke="#4E5863" stroke-width="0.8" stroke-linejoin="round"/>
<circle cx="11.9995" cy="13.2119" r="3.22363" stroke="#4E5863"/>
<circle cx="19.3325" cy="5.48145" r="1.2627" fill="#4E5863"/>
</svg>
