<svg width="35" height="35" viewBox="0 0 35 35" fill="none" xmlns="http://www.w3.org/2000/svg">
<path d="M17.8767 27.082C21.7426 27.082 24.0394 24.8989 24.0394 21.8516C24.0394 20.429 23.6029 19.2934 22.7759 18.4387H26.0323C26.346 18.4387 26.6003 18.1844 26.6003 17.8707C26.6003 17.5569 26.346 17.3026 26.0323 17.3026H21.1103C20.6015 17.0739 20.0304 16.8924 19.4003 16.7578L17.1035 16.2802C15.2615 15.8936 14.3746 15.1204 14.3746 13.6196C14.3746 12.0505 15.4889 10.9589 17.5355 10.9589C19.6049 10.9589 20.7192 12.0505 20.7192 13.6196C20.7192 13.7703 20.8414 13.8924 20.9921 13.8924H23.107C23.2577 13.8924 23.3799 13.7703 23.3799 13.6196C23.3799 10.9134 21.3787 8.66211 17.5355 8.66211C13.7379 8.66211 11.714 10.9134 11.714 13.6196C11.714 15.2556 12.315 16.4647 13.3865 17.3026H9.72039C9.40667 17.3026 9.15234 17.5569 9.15234 17.8707C9.15234 18.1844 9.40667 18.4387 9.72039 18.4387H15.8595C15.9911 18.4719 16.1253 18.5028 16.2621 18.5315L18.5589 19.0091C20.4918 19.4184 21.3787 20.4417 21.3787 21.8971C21.3787 23.6254 20.0825 24.8079 17.8767 24.8079C15.6936 24.8079 14.3746 23.6254 14.3746 21.8971V21.7718C14.3746 21.615 14.2474 21.4878 14.0906 21.4878H11.998C11.8411 21.4878 11.714 21.615 11.714 21.7718V21.8516C11.714 24.8989 14.0335 27.082 17.8767 27.082Z" fill="currentColor"/>
</svg>
