<svg width="39" height="39" viewBox="0 0 39 39" fill="none" xmlns="http://www.w3.org/2000/svg">
<path fill-rule="evenodd" clip-rule="evenodd" d="M26.1106 7.06405C26.339 6.50729 27.1275 6.50729 27.3558 7.06405L27.8889 8.36392L29.2899 8.46927C29.89 8.51439 30.1337 9.26428 29.6747 9.6535L28.6032 10.5622L28.9359 11.9272C29.0785 12.5118 28.4406 12.9753 27.9286 12.6591L26.7332 11.9208L25.5379 12.6591C25.0259 12.9753 24.388 12.5118 24.5305 11.9272L24.8633 10.5622L23.7918 9.6535C23.3328 9.26428 23.5765 8.51439 24.1765 8.46927L25.5775 8.36392L26.1106 7.06405ZM27.239 8.6569L26.7332 7.42372L26.2275 8.6569C26.1308 8.89258 25.9093 9.05348 25.6553 9.07258L24.3262 9.17253L25.3427 10.0346C25.537 10.1994 25.6216 10.4597 25.5613 10.7072L25.2456 12.0022L26.3796 11.3018C26.5964 11.1679 26.8701 11.1679 27.0868 11.3018L28.2209 12.0022L27.9052 10.7072C27.8449 10.4597 27.9295 10.1994 28.1237 10.0346L29.1403 9.17253L27.8111 9.07258C27.5571 9.05348 27.3357 8.89258 27.239 8.6569Z" fill="#9F9F9F"/>
<path fill-rule="evenodd" clip-rule="evenodd" d="M29.8999 14.3743C29.8999 13.8497 29.4746 13.4243 28.9499 13.4243H24.5166C23.9919 13.4243 23.5666 13.8497 23.5666 14.3743V30.43C23.5666 30.9547 23.9919 31.38 24.5166 31.38H28.9499C29.4746 31.38 29.8999 30.9547 29.8999 30.43V14.3743ZM29.1082 14.3743C29.1082 14.2869 29.0373 14.216 28.9499 14.216H24.5166C24.4291 14.216 24.3582 14.2869 24.3582 14.3743V30.43C24.3582 30.5175 24.4291 30.5883 24.5166 30.5883H28.9499C29.0373 30.5883 29.1082 30.5175 29.1082 30.43V14.3743Z" fill="#9F9F9F"/>
<path fill-rule="evenodd" clip-rule="evenodd" d="M23.0841 16.9411C23.0841 16.4164 22.6588 15.9911 22.1341 15.9911H17.7008C17.1761 15.9911 16.7508 16.4164 16.7508 16.9411V30.4316C16.7508 30.9563 17.1761 31.3816 17.7008 31.3816H22.1341C22.6588 31.3816 23.0841 30.9563 23.0841 30.4316V16.9411ZM22.1341 16.7827H17.7008C17.6134 16.7827 17.5425 16.8536 17.5425 16.9411V30.4316C17.5425 30.5191 17.6134 30.59 17.7008 30.59H22.1341C22.2216 30.59 22.2925 30.5191 22.2925 30.4316V16.9411C22.2925 16.8536 22.2216 16.7827 22.1341 16.7827Z" fill="#9F9F9F"/>
<path fill-rule="evenodd" clip-rule="evenodd" d="M15.3184 18.5578C15.8431 18.5578 16.2684 18.9831 16.2684 19.5078V30.4333C16.2684 30.958 15.8431 31.3833 15.3184 31.3833H10.8851C10.3604 31.3833 9.93506 30.958 9.93506 30.4333V19.5078C9.93506 18.9831 10.3604 18.5578 10.8851 18.5578H15.3184ZM10.8851 19.3495H15.3184C15.4058 19.3495 15.4767 19.4204 15.4767 19.5078V30.4333C15.4767 30.5207 15.4058 30.5916 15.3184 30.5916H10.8851C10.7976 30.5916 10.7267 30.5207 10.7267 30.4333V19.5078C10.7267 19.4204 10.7976 19.3495 10.8851 19.3495Z" fill="#9F9F9F"/>
</svg>
