<svg width="35" height="35" viewBox="0 0 35 35" fill="none" xmlns="http://www.w3.org/2000/svg">
<path d="M26.2603 24.2413L29.8754 20.6263C30.0972 20.4044 30.0972 20.0448 29.8754 19.8229C29.6535 19.6011 29.2939 19.6011 29.072 19.8229L26.4267 22.4682V8.74969C26.4267 8.43596 26.1724 8.18164 25.8587 8.18164H9.39694C9.08321 8.18164 8.82889 8.43596 8.82889 8.74969C8.82889 9.06341 9.08321 9.31773 9.39694 9.31773L25.2906 9.31773L25.2906 22.4682L22.6453 19.8229C22.4235 19.6011 22.0638 19.6011 21.842 19.8229C21.6202 20.0448 21.6202 20.4044 21.842 20.6263L25.457 24.2413C25.6788 24.4631 26.0385 24.4631 26.2603 24.2413Z" fill="currentColor"/>
<path d="M8.99673 11.3368L5.38171 14.9518C5.15987 15.1737 5.15987 15.5333 5.38171 15.7552C5.60354 15.977 5.96321 15.977 6.18505 15.7552L8.83035 13.1099L8.83035 26.8284C8.83035 27.1421 9.08467 27.3964 9.3984 27.3964L25.8601 27.3964C26.1739 27.3964 26.4282 27.1421 26.4282 26.8284C26.4282 26.5147 26.1739 26.2604 25.8601 26.2604H9.96644V13.1099L12.6117 15.7552C12.8336 15.977 13.1932 15.977 13.4151 15.7552C13.6369 15.5333 13.6369 15.1737 13.4151 14.9518L9.80007 11.3368C9.57823 11.115 9.21856 11.115 8.99673 11.3368Z" fill="currentColor"/>
</svg>
