<svg width="25" height="25" viewBox="0 0 25 25" fill="none" xmlns="http://www.w3.org/2000/svg">
<path fill-rule="evenodd" clip-rule="evenodd" d="M7.3028 5.3818C6.29579 5.3818 5.47946 6.19814 5.47946 7.20514V17.3585C5.47946 18.3655 6.29579 19.1818 7.3028 19.1818H17.4561C18.4631 19.1818 19.2795 18.3655 19.2795 17.3585V7.20514C19.2795 6.19814 18.4631 5.3818 17.4561 5.3818H7.3028ZM6.27946 7.20514C6.27946 6.63996 6.73762 6.1818 7.3028 6.1818H17.4561C18.0213 6.1818 18.4795 6.63996 18.4795 7.20514V17.3585C18.4795 17.9236 18.0213 18.3818 17.4561 18.3818H7.3028C6.73762 18.3818 6.27946 17.9236 6.27946 17.3585V7.20514ZM16.8792 9.93083C17.0381 9.77736 17.0425 9.52413 16.889 9.36523C16.7356 9.20634 16.4823 9.20195 16.3234 9.35542L11.5545 13.9617C11.322 14.1863 10.9534 14.1863 10.7209 13.9617L8.43548 11.7542C8.27658 11.6007 8.02336 11.6051 7.86988 11.764C7.7164 11.9229 7.72079 12.1761 7.87968 12.3296L10.1651 14.5371C10.7076 15.0612 11.5678 15.0612 12.1103 14.5371L16.8792 9.93083Z" fill="#4E5863"/>
</svg>
