<svg width="24" height="24" viewBox="0 0 24 24" fill="none" xmlns="http://www.w3.org/2000/svg">
<path d="M10.1218 10.3653C10.3328 10.3653 10.5039 10.5364 10.5039 10.7474V16.6167C10.5039 16.8277 10.3328 16.9987 10.1218 16.9987C9.91077 16.9987 9.73971 16.8277 9.73971 16.6167V10.7474C9.73971 10.5364 9.91077 10.3653 10.1218 10.3653Z" fill="#4E5863"/>
<path d="M14.2925 10.7474C14.2925 10.5364 14.1214 10.3653 13.9104 10.3653C13.6994 10.3653 13.5283 10.5364 13.5283 10.7474V16.6167C13.5283 16.8277 13.6994 16.9987 13.9104 16.9987C14.1214 16.9987 14.2925 16.8277 14.2925 16.6167V10.7474Z" fill="#4E5863"/>
<path fill-rule="evenodd" clip-rule="evenodd" d="M6.86894 3.16736C6.86894 2.4288 7.46766 1.83008 8.20622 1.83008H15.8563C16.5948 1.83008 17.1936 2.4288 17.1936 3.16736V5.18041H21.552C21.763 5.18041 21.9341 5.35147 21.9341 5.56249C21.9341 5.77351 21.763 5.94457 21.552 5.94457H19.5868V20.8326C19.5868 21.5712 18.9881 22.1699 18.2495 22.1699H5.78747C5.04891 22.1699 4.45019 21.5712 4.45019 20.8326V5.94457H2.448C2.23698 5.94457 2.06592 5.77351 2.06592 5.56249C2.06592 5.35147 2.23698 5.18041 2.448 5.18041H6.86894V3.16736ZM7.6331 5.18041H16.4294V3.16736C16.4294 2.85083 16.1728 2.59424 15.8563 2.59424H8.20622C7.88969 2.59424 7.6331 2.85083 7.6331 3.16736V5.18041ZM5.21435 5.94457V20.8326C5.21435 21.1492 5.47094 21.4058 5.78747 21.4058H18.2495C18.5661 21.4058 18.8227 21.1492 18.8227 20.8326V5.94457H5.21435Z" fill="#4E5863"/>
</svg>
