<svg width="25" height="25" viewBox="0 0 25 25" fill="none" xmlns="http://www.w3.org/2000/svg">
<path d="M15.1857 11.9785C15.1857 13.5125 13.9582 14.7811 12.4395 14.7811C10.9207 14.7811 9.68457 13.5125 9.68457 11.9785C9.68457 10.4444 10.9207 9.28113 12.4395 9.28113C13.9582 9.28113 15.1857 10.4444 15.1857 11.9785Z" stroke="#4E5863" stroke-width="0.8"/>
<path fill-rule="evenodd" clip-rule="evenodd" d="M17.821 16.8266C16.1949 17.9041 14.3055 18.631 12.4397 18.631C10.3035 18.631 8.13643 17.6782 6.36891 16.3373C4.59694 14.993 3.28562 13.304 2.81913 11.9045C2.74927 11.6949 2.52275 11.5816 2.31317 11.6515C2.10359 11.7214 1.99033 11.9479 2.06019 12.1575C2.59369 13.758 4.03238 15.5689 5.8854 16.9746C7.74289 18.3838 10.0759 19.431 12.4397 19.431C14.5568 19.431 16.6493 18.5909 18.3975 17.4031L17.821 16.8266ZM19.9782 16.1554C21.349 14.905 22.3845 13.4614 22.8191 12.1575C22.889 11.9479 22.7757 11.7214 22.5662 11.6515C22.3566 11.5816 22.13 11.6949 22.0602 11.9045C21.6769 13.0545 20.7231 14.4 19.412 15.5891L19.9782 16.1554Z" fill="#4E5863"/>
<path fill-rule="evenodd" clip-rule="evenodd" d="M7.19818 6.20364C6.74012 6.47493 6.30087 6.77201 5.8854 7.08718C4.03238 8.49292 2.59369 10.3038 2.06019 11.9044C1.99033 12.1139 2.10359 12.3405 2.31317 12.4103C2.52275 12.4802 2.74927 12.3669 2.81913 12.1574C3.28562 10.7579 4.59694 9.06879 6.36891 7.72454C6.81702 7.38459 7.29081 7.06959 7.78327 6.78873L7.19818 6.20364ZM9.72818 5.90522C10.6155 5.6035 11.5304 5.43086 12.4397 5.43086C14.5759 5.43086 16.7429 6.38366 18.5104 7.72454C20.2824 9.06879 21.5937 10.7579 22.0602 12.1574C22.13 12.3669 22.3566 12.4802 22.5662 12.4103C22.7757 12.3405 22.889 12.1139 22.8191 11.9044C22.2856 10.3038 20.8469 8.49292 18.9939 7.08718C17.1364 5.67806 14.8035 4.63086 12.4397 4.63086C11.3039 4.63086 10.1753 4.87261 9.10308 5.28011L9.72818 5.90522Z" fill="#4E5863"/>
<path d="M20.9395 20.5312L3.93945 3.53125" stroke="#4E5863" stroke-width="0.8" stroke-linecap="round"/>
</svg>
