<svg width="24" height="26" viewBox="0 0 24 26" fill="none" xmlns="http://www.w3.org/2000/svg">
<g clip-path="url(#clip0_385_5925)">
<path d="M24 13.2797C24 12.2379 23.9183 11.4778 23.7415 10.6895H12.2449V15.3912H18.9931C18.8571 16.5597 18.1224 18.3193 16.4897 19.5018L16.4669 19.6592L20.1019 22.5728L20.3537 22.5989C22.6666 20.3887 24 17.1368 24 13.2797Z" fill="#4285F4"/>
<path d="M12.245 25.6677C15.551 25.6677 18.3265 24.5415 20.3538 22.5989L16.4898 19.5018C15.4558 20.2479 14.068 20.7687 12.245 20.7687C9.00688 20.7687 6.25861 18.5587 5.27892 15.5039L5.13532 15.5165L1.35558 18.5431L1.30615 18.6853C3.31974 22.824 7.4558 25.6677 12.245 25.6677Z" fill="#34A853"/>
<path d="M5.27886 15.5047C5.02036 14.7164 4.87076 13.8717 4.87076 12.9989C4.87076 12.1261 5.02036 11.2815 5.26526 10.4931L5.25841 10.3252L1.43131 7.25L1.30609 7.31163C0.476196 9.02908 0 10.9577 0 12.9989C0 15.0401 0.476196 16.9686 1.30609 18.6861L5.27886 15.5047Z" fill="#FBBC05"/>
<path d="M12.245 5.22895C14.5442 5.22895 16.0952 6.25659 16.9796 7.11536L20.4354 3.62417C18.313 1.58296 15.551 0.330078 12.245 0.330078C7.4558 0.330078 3.31974 3.17367 1.30615 7.31237L5.26532 10.4939C6.25861 7.43912 9.00689 5.22895 12.245 5.22895Z" fill="#EB4335"/>
</g>
<defs>
<clipPath id="clip0_385_5925">
<rect width="24" height="25.4118" fill="white" transform="translate(0 0.292969)"/>
</clipPath>
</defs>
</svg>
