<svg width="35" height="35" viewBox="0 0 35 35" fill="none" xmlns="http://www.w3.org/2000/svg">
<path fill-rule="evenodd" clip-rule="evenodd" d="M22.2879 11.1187C21.1315 11.1187 20.1941 12.0561 20.1941 13.2124C20.1941 14.3687 21.1315 15.3061 22.2879 15.3061C23.4442 15.3061 24.3816 14.3687 24.3816 13.2124C24.3816 12.0561 23.4442 11.1187 22.2879 11.1187ZM21.3302 13.2124C21.3302 12.6835 21.759 12.2548 22.2879 12.2548C22.8167 12.2548 23.2455 12.6835 23.2455 13.2124C23.2455 13.7413 22.8167 14.17 22.2879 14.17C21.759 14.17 21.3302 13.7413 21.3302 13.2124Z" fill="#4E5863"/>
<path fill-rule="evenodd" clip-rule="evenodd" d="M7.73486 9.51664C7.73486 8.57547 8.49783 7.8125 9.439 7.8125H25.9833C26.9245 7.8125 27.6875 8.57547 27.6875 9.51664V26.061C27.6875 27.0021 26.9245 27.7651 25.9833 27.7651H9.439C8.49783 27.7651 7.73486 27.0021 7.73486 26.061V9.51664ZM9.439 8.94859C9.12528 8.94859 8.87095 9.20291 8.87095 9.51664V21.6036L13.6065 17.502C14.5883 16.6516 16.0467 16.6554 17.0241 17.5108L26.5514 25.8497V9.51664C26.5514 9.20291 26.297 8.94859 25.9833 8.94859H9.439ZM8.87095 26.061V23.1004C8.89107 23.0871 8.91056 23.0723 8.92929 23.0561L14.3503 18.3607C14.9034 17.8816 15.7252 17.8838 16.2758 18.3657L25.7168 26.629H9.439C9.12528 26.629 8.87095 26.3747 8.87095 26.061Z" fill="#4E5863"/>
</svg>
