<svg width="35" height="35" viewBox="0 0 35 35" fill="none" xmlns="http://www.w3.org/2000/svg">
<path d="M10.1897 12.4352C10.1897 12.3568 10.2533 12.2932 10.3317 12.2932H11.5049C11.5834 12.2932 11.6469 12.3568 11.6469 12.4352V13.6735C11.6469 13.7519 11.5834 13.8155 11.5049 13.8155H10.3317C10.2533 13.8155 10.1897 13.7519 10.1897 13.6735V12.4352Z" fill="#4E5863"/>
<path d="M10.3317 14.7215C10.2533 14.7215 10.1897 14.785 10.1897 14.8635V16.1017C10.1897 16.1801 10.2533 16.2437 10.3317 16.2437H11.5049C11.5834 16.2437 11.6469 16.1801 11.6469 16.1017V14.8635C11.6469 14.785 11.5834 14.7215 11.5049 14.7215H10.3317Z" fill="#4E5863"/>
<path d="M10.1897 17.2917C10.1897 17.2133 10.2533 17.1497 10.3317 17.1497H11.5049C11.5834 17.1497 11.6469 17.2133 11.6469 17.2917V18.53C11.6469 18.6084 11.5834 18.672 11.5049 18.672H10.3317C10.2533 18.672 10.1897 18.6084 10.1897 18.53V17.2917Z" fill="#4E5863"/>
<path d="M12.7808 17.1497C12.7024 17.1497 12.6388 17.2133 12.6388 17.2917V18.53C12.6388 18.6084 12.7024 18.672 12.7808 18.672H21.3014C21.3798 18.672 21.4434 18.6084 21.4434 18.53V17.2917C21.4434 17.2133 21.3798 17.1497 21.3014 17.1497H12.7808Z" fill="#4E5863"/>
<path d="M12.6388 12.4352C12.6388 12.3568 12.7024 12.2932 12.7808 12.2932H13.9541C14.0325 12.2932 14.0961 12.3568 14.0961 12.4352V13.6735C14.0961 13.7519 14.0325 13.8155 13.9541 13.8155H12.7808C12.7024 13.8155 12.6388 13.7519 12.6388 13.6735V12.4352Z" fill="#4E5863"/>
<path d="M12.7808 14.7215C12.7024 14.7215 12.6388 14.785 12.6388 14.8635V16.1017C12.6388 16.1801 12.7024 16.2437 12.7808 16.2437H13.9541C14.0325 16.2437 14.0961 16.1801 14.0961 16.1017V14.8635C14.0961 14.785 14.0325 14.7215 13.9541 14.7215H12.7808Z" fill="#4E5863"/>
<path d="M15.0879 12.4352C15.0879 12.3568 15.1515 12.2932 15.2299 12.2932H16.4032C16.4816 12.2932 16.5452 12.3568 16.5452 12.4352V13.6735C16.5452 13.7519 16.4816 13.8155 16.4032 13.8155H15.2299C15.1515 13.8155 15.0879 13.7519 15.0879 13.6735V12.4352Z" fill="#4E5863"/>
<path d="M15.2299 14.7215C15.1515 14.7215 15.0879 14.785 15.0879 14.8635V16.1017C15.0879 16.1801 15.1515 16.2437 15.2299 16.2437H16.4032C16.4816 16.2437 16.5452 16.1801 16.5452 16.1017V14.8635C16.5452 14.785 16.4816 14.7215 16.4032 14.7215H15.2299Z" fill="#4E5863"/>
<path d="M17.537 12.4352C17.537 12.3568 17.6006 12.2932 17.679 12.2932H18.8523C18.9307 12.2932 18.9943 12.3568 18.9943 12.4352V13.6735C18.9943 13.7519 18.9307 13.8155 18.8523 13.8155H17.679C17.6006 13.8155 17.537 13.7519 17.537 13.6735V12.4352Z" fill="#4E5863"/>
<path d="M17.679 14.7215C17.6006 14.7215 17.537 14.785 17.537 14.8635V16.1017C17.537 16.1801 17.6006 16.2437 17.679 16.2437H18.8523C18.9307 16.2437 18.9943 16.1801 18.9943 16.1017V14.8635C18.9943 14.785 18.9307 14.7215 18.8523 14.7215H17.679Z" fill="#4E5863"/>
<path d="M19.9861 12.4352C19.9861 12.3568 20.0497 12.2932 20.1282 12.2932H21.3014C21.3798 12.2932 21.4434 12.3568 21.4434 12.4352V13.6735C21.4434 13.7519 21.3798 13.8155 21.3014 13.8155H20.1282C20.0497 13.8155 19.9861 13.7519 19.9861 13.6735V12.4352Z" fill="#4E5863"/>
<path d="M20.1282 14.7215C20.0497 14.7215 19.9861 14.785 19.9861 14.8635V16.1017C19.9861 16.1801 20.0497 16.2437 20.1282 16.2437H21.3014C21.3798 16.2437 21.4434 16.1801 21.4434 16.1017V14.8635C21.4434 14.785 21.3798 14.7215 21.3014 14.7215H20.1282Z" fill="#4E5863"/>
<path d="M22.4353 12.4575C22.4353 12.3668 22.5088 12.2932 22.5996 12.2932H23.7282C23.8189 12.2932 23.8925 12.3668 23.8925 12.4575V13.6511C23.8925 13.7419 23.8189 13.8155 23.7282 13.8155H22.5996C22.5088 13.8155 22.4353 13.7419 22.4353 13.6511V12.4575Z" fill="#4E5863"/>
<path d="M22.5773 14.7215C22.4988 14.7215 22.4353 14.785 22.4353 14.8635V16.1017C22.4353 16.1801 22.4988 16.2437 22.5773 16.2437H23.7505C23.8289 16.2437 23.8925 16.1801 23.8925 16.1017V14.8635C23.8925 14.785 23.8289 14.7215 23.7505 14.7215H22.5773Z" fill="#4E5863"/>
<path d="M22.4353 17.2917C22.4353 17.2133 22.4988 17.1497 22.5773 17.1497H23.7505C23.8289 17.1497 23.8925 17.2133 23.8925 17.2917V18.53C23.8925 18.6084 23.8289 18.672 23.7505 18.672H22.5773C22.4988 18.672 22.4353 18.6084 22.4353 18.53V17.2917Z" fill="#4E5863"/>
<path fill-rule="evenodd" clip-rule="evenodd" d="M6.8798 8.99805C6.80137 8.99805 6.73779 9.06163 6.73779 9.14006V21.8295C6.73779 21.9079 6.80137 21.9715 6.87981 21.9715H27.203C27.2815 21.9715 27.345 21.9079 27.345 21.8295V9.14006C27.345 9.06163 27.2815 8.99805 27.203 8.99805H6.8798ZM7.87388 10.1341V20.8354H26.209V10.1341H7.87388Z" fill="#4E5863"/>
<path d="M22.2144 24.3718C22.5036 24.25 22.6393 23.917 22.5176 23.6278C22.3959 23.3387 22.0628 23.203 21.7736 23.3247L16.9691 25.3473L12.2379 23.3259C11.9494 23.2026 11.6156 23.3365 11.4923 23.625C11.3691 23.9135 11.503 24.2473 11.7915 24.3706L16.9658 26.5813L22.2144 24.3718Z" fill="#4E5863"/>
</svg>
