<svg width="39" height="39" viewBox="0 0 39 39" fill="none" xmlns="http://www.w3.org/2000/svg">
<path fill-rule="evenodd" clip-rule="evenodd" d="M10.0024 8.34649C10.0024 7.82181 10.4278 7.39648 10.9524 7.39648H15.3858C15.9104 7.39648 16.3358 7.82181 16.3358 8.34648V29.6831C16.3358 30.2078 15.9104 30.6332 15.3858 30.6332H10.9524C10.4278 30.6332 10.0024 30.2078 10.0024 29.6831V8.34649ZM15.3858 8.18815H10.9524C10.865 8.18815 10.7941 8.25904 10.7941 8.34649V11.2435H13.2371V12.0352H10.7941V12.2949H14.1463V13.0866H10.7941V29.6831C10.7941 29.7706 10.865 29.8415 10.9524 29.8415H15.3858C15.4732 29.8415 15.5441 29.7706 15.5441 29.6831V8.34648C15.5441 8.25904 15.4732 8.18815 15.3858 8.18815Z" fill="currentColor"/>
<path fill-rule="evenodd" clip-rule="evenodd" d="M16.8182 8.34649C16.8182 7.82181 17.2435 7.39648 17.7682 7.39648H22.2015C22.7262 7.39648 23.1515 7.82181 23.1515 8.34648V29.6831C23.1515 30.2078 22.7262 30.6332 22.2015 30.6332H17.7682C17.2435 30.6332 16.8182 30.2078 16.8182 29.6831V8.34649ZM22.2015 8.18815H17.7682C17.6808 8.18815 17.6099 8.25904 17.6099 8.34649V11.2435H20.0529V12.0352H17.6099V12.2949H20.9621V13.0866H17.6099V29.6831C17.6099 29.7706 17.6808 29.8415 17.7682 29.8415H22.2015C22.289 29.8415 22.3599 29.7706 22.3599 29.6831V8.34648C22.3599 8.25904 22.289 8.18815 22.2015 8.18815Z" fill="currentColor"/>
<path fill-rule="evenodd" clip-rule="evenodd" d="M23.6339 29.6831C23.6339 30.2078 24.0593 30.6332 24.5839 30.6332H29.0173C29.542 30.6332 29.9673 30.2078 29.9673 29.6831V11.1421C29.9673 10.6174 29.542 10.1921 29.0173 10.1921H24.5839C24.0593 10.1921 23.6339 10.6174 23.6339 11.1421V29.6831ZM24.5839 10.9837H29.0173C29.1047 10.9837 29.1756 11.0546 29.1756 11.1421V29.6831C29.1756 29.7706 29.1047 29.8415 29.0173 29.8415H24.5839C24.4965 29.8415 24.4256 29.7706 24.4256 29.6831V15.8822H27.7778V15.0905H24.4256V14.8307H26.8686V14.0391H24.4256V11.1421C24.4256 11.0546 24.4965 10.9837 24.5839 10.9837Z" fill="currentColor"/>
</svg>
