<svg width="177" height="81" viewBox="0 0 60 28" fill="none" xmlns="http://www.w3.org/2000/svg">
<path d="M20.8105 19.8733V19.5796C21.0806 19.4513 21.3574 19.3703 21.641 19.3365V13.3313C21.5059 13.3043 21.3675 13.2705 21.2258 13.23C21.084 13.1827 20.9456 13.1321 20.8105 13.0781V12.7844H21.884C22.0123 12.7844 22.1338 12.781 22.2486 12.7743C22.3701 12.7675 22.495 12.7608 22.6233 12.754C22.7515 12.7473 22.8899 12.7405 23.0385 12.7338C23.187 12.727 23.3558 12.7237 23.5448 12.7237C23.8149 12.7237 24.0883 12.7473 24.3651 12.7945C24.6487 12.835 24.9018 12.9161 25.1246 13.0376C25.3542 13.1591 25.5398 13.3313 25.6816 13.5541C25.8234 13.7701 25.8943 14.0537 25.8943 14.4047C25.8943 14.5803 25.8673 14.7558 25.8133 14.9313C25.7592 15.1069 25.6749 15.2723 25.5601 15.4275C25.4521 15.5761 25.3137 15.7077 25.1449 15.8225C24.9761 15.9373 24.7769 16.0217 24.5474 16.0757V16.1162C24.7499 16.1499 24.9491 16.2073 25.1449 16.2883C25.3474 16.3693 25.5263 16.4807 25.6816 16.6225C25.8369 16.7575 25.9618 16.9263 26.0563 17.1289C26.1576 17.3314 26.2082 17.5745 26.2082 17.858C26.2082 18.2226 26.1272 18.5365 25.9652 18.7998C25.8031 19.0631 25.5905 19.2792 25.3272 19.4479C25.0706 19.6167 24.7769 19.7416 24.4461 19.8226C24.1153 19.8969 23.7811 19.934 23.4436 19.934C23.2073 19.934 22.9406 19.9239 22.6435 19.9036C22.3465 19.8834 22.0595 19.8733 21.7827 19.8733H20.8105ZM23.5144 19.4074C23.7575 19.4074 23.9837 19.3703 24.1929 19.296C24.409 19.2218 24.5913 19.1205 24.7398 18.9922C24.8951 18.8572 25.0166 18.6985 25.1044 18.5163C25.1921 18.3272 25.236 18.1247 25.236 17.9086C25.236 17.6386 25.182 17.4158 25.074 17.2403C24.9727 17.058 24.8309 16.9162 24.6487 16.8149C24.4731 16.7069 24.2672 16.6326 24.0309 16.5921C23.8014 16.5516 23.5617 16.5314 23.3119 16.5314H22.5524V19.3264C22.6469 19.3534 22.7583 19.3737 22.8866 19.3872C23.0216 19.4007 23.2309 19.4074 23.5144 19.4074ZM23.0587 16.0048C23.1735 16.0048 23.3085 16.0014 23.4638 15.9947C23.6258 15.9811 23.7575 15.9676 23.8588 15.9541C24.1693 15.8461 24.4225 15.674 24.6183 15.4377C24.8208 15.1946 24.9221 14.9111 24.9221 14.587C24.9221 14.1414 24.7871 13.8072 24.517 13.5844C24.2537 13.3616 23.8993 13.2503 23.4537 13.2503C23.2444 13.2503 23.0655 13.2536 22.9169 13.2604C22.7684 13.2671 22.6469 13.2773 22.5524 13.2908V16.0048H23.0587Z" fill="#397CC0"/>
<path d="M27.1625 17.3415C27.1625 16.9162 27.2165 16.5415 27.3245 16.2174C27.4393 15.8866 27.6013 15.6098 27.8106 15.387C28.0199 15.1575 28.2697 14.9853 28.56 14.8706C28.8571 14.749 29.1845 14.6883 29.5423 14.6883C29.9609 14.6883 30.3221 14.7524 30.6259 14.8807C30.9297 15.009 31.1762 15.1912 31.3652 15.4275C31.561 15.6571 31.7028 15.9339 31.7905 16.258C31.885 16.582 31.9323 16.9432 31.9323 17.3415C31.9323 18.1922 31.7163 18.8471 31.2842 19.3062C30.8521 19.7652 30.2715 19.9948 29.5423 19.9948C29.1373 19.9948 28.7862 19.934 28.4891 19.8125C28.1921 19.6842 27.9457 19.5053 27.7499 19.2758C27.5541 19.0395 27.4056 18.7593 27.3043 18.4352C27.2098 18.1044 27.1625 17.7399 27.1625 17.3415ZM28.1347 17.3415C28.1347 17.6453 28.1617 17.9323 28.2157 18.2023C28.2765 18.4724 28.3676 18.7087 28.4891 18.9112C28.6174 19.107 28.7828 19.2623 28.9854 19.377C29.1879 19.4918 29.4309 19.5492 29.7145 19.5492C30.0791 19.5492 30.3761 19.3703 30.6057 19.0125C30.842 18.6547 30.9601 18.0977 30.9601 17.3415C30.9601 17.031 30.9297 16.744 30.869 16.4807C30.815 16.2107 30.7272 15.9778 30.6057 15.782C30.4841 15.5794 30.3289 15.4208 30.1398 15.306C29.9508 15.1912 29.7246 15.1339 29.4613 15.1339C29.063 15.1339 28.7423 15.3128 28.4993 15.6706C28.2562 16.0284 28.1347 16.5854 28.1347 17.3415Z" fill="#397CC0"/>
<path d="M32.76 17.3415C32.76 16.9162 32.814 16.5415 32.922 16.2174C33.0368 15.8866 33.1988 15.6098 33.4081 15.387C33.6174 15.1575 33.8672 14.9853 34.1575 14.8706C34.4546 14.749 34.782 14.6883 35.1398 14.6883C35.5584 14.6883 35.9196 14.7524 36.2234 14.8807C36.5272 15.009 36.7737 15.1912 36.9627 15.4275C37.1585 15.6571 37.3003 15.9339 37.388 16.258C37.4825 16.582 37.5298 16.9432 37.5298 17.3415C37.5298 18.1922 37.3138 18.8471 36.8817 19.3062C36.4496 19.7652 35.869 19.9948 35.1398 19.9948C34.7348 19.9948 34.3837 19.934 34.0866 19.8125C33.7896 19.6842 33.5432 19.5053 33.3474 19.2758C33.1516 19.0395 33.0031 18.7593 32.9018 18.4352C32.8073 18.1044 32.76 17.7399 32.76 17.3415ZM33.7322 17.3415C33.7322 17.6453 33.7592 17.9323 33.8132 18.2023C33.874 18.4724 33.9651 18.7087 34.0866 18.9112C34.2149 19.107 34.3803 19.2623 34.5829 19.377C34.7854 19.4918 35.0284 19.5492 35.312 19.5492C35.6766 19.5492 35.9736 19.3703 36.2032 19.0125C36.4395 18.6547 36.5576 18.0977 36.5576 17.3415C36.5576 17.031 36.5272 16.744 36.4665 16.4807C36.4125 16.2107 36.3247 15.9778 36.2032 15.782C36.0816 15.5794 35.9264 15.4208 35.7373 15.306C35.5483 15.1912 35.3221 15.1339 35.0588 15.1339C34.6605 15.1339 34.3398 15.3128 34.0968 15.6706C33.8537 16.0284 33.7322 16.5854 33.7322 17.3415Z" fill="#397CC0"/>
<path d="M40.9804 14.8098H42.9349V15.0731C42.8066 15.1271 42.6783 15.1744 42.5501 15.2149C42.4285 15.2554 42.3003 15.2891 42.1652 15.3161C42.064 15.4512 41.9458 15.5963 41.8108 15.7516C41.6825 15.9069 41.5509 16.0622 41.4159 16.2174C41.2808 16.3727 41.1492 16.5179 41.0209 16.6529C40.8994 16.7879 40.7947 16.8993 40.707 16.9871C40.8082 17.1221 40.9298 17.2875 41.0715 17.4833C41.2201 17.6723 41.3787 17.8749 41.5475 18.0909C41.7163 18.307 41.8884 18.5264 42.064 18.7492C42.2463 18.972 42.4252 19.1813 42.6007 19.377L43.1678 19.6201V19.8733H41.9121L41.6386 19.6302C41.2808 19.1846 40.9838 18.7897 40.7475 18.4454C40.5112 18.0943 40.2951 17.7669 40.0994 17.4631L39.7652 17.3618V19.377C39.988 19.4176 40.2074 19.4986 40.4234 19.6201V19.8733H38.1854V19.6201C38.4082 19.5121 38.6309 19.4311 38.8537 19.377V12.9667L38.0841 12.8857V12.6224C38.2731 12.5346 38.4993 12.4637 38.7626 12.4097C39.0259 12.3557 39.2757 12.3051 39.512 12.2578H39.7652V17.0985H40.0285C40.1365 16.977 40.2546 16.8419 40.3829 16.6934C40.5112 16.5449 40.6395 16.393 40.7677 16.2377C40.896 16.0757 41.0209 15.917 41.1424 15.7617C41.2639 15.6065 41.3753 15.4579 41.4766 15.3161C41.3078 15.2689 41.1424 15.1879 40.9804 15.0731V14.8098Z" fill="#397CC0"/>
<path d="M16.192 4.51172H21.7135V5.25303C20.9977 5.7302 20.299 6.07103 19.6174 6.27553V22.7122H18.1603L8.88112 8.62728L7.88419 6.63341H7.8075L8.03756 8.62728V20.7695C8.73627 20.9569 9.39237 21.2551 10.0059 21.6641V22.4055H4.48438V21.6641C4.79112 21.4767 5.11492 21.3148 5.45575 21.1785C5.81362 21.0251 6.18854 20.8888 6.5805 20.7695V6.12216C6.23967 5.98582 5.89883 5.84097 5.558 5.68759C5.23421 5.53422 4.92746 5.38084 4.63775 5.22747V4.51172H8.95781L17.01 16.6539L18.1859 18.8523H18.2881L18.1603 16.6539V6.27553C17.8024 6.12216 17.4531 5.96026 17.1122 5.78984C16.7884 5.61943 16.4817 5.44049 16.192 5.25303V4.51172Z" fill="#245586"/>
<path d="M19.9209 16.5255C19.9209 15.4519 20.0572 14.5061 20.3299 13.6881C20.6196 12.853 21.0286 12.1543 21.5569 11.5919C22.0852 11.0125 22.7157 10.578 23.4485 10.2882C24.1984 9.9815 25.0249 9.82812 25.9281 9.82812C26.9847 9.82812 27.8964 9.99002 28.6633 10.3138C29.4301 10.6376 30.0522 11.0977 30.5293 11.6942C31.0235 12.2736 31.3814 12.9723 31.603 13.7903C31.8415 14.6083 31.9608 15.52 31.9608 16.5255C31.9608 18.6727 31.4155 20.3258 30.3248 21.4846C29.2342 22.6434 27.7686 23.2229 25.9281 23.2229C24.9056 23.2229 24.0194 23.0695 23.2696 22.7627C22.5198 22.4389 21.8977 21.9873 21.4035 21.4079C20.9093 20.8115 20.5344 20.1042 20.2788 19.2862C20.0402 18.4512 19.9209 17.531 19.9209 16.5255ZM22.3749 16.5255C22.3749 17.2924 22.4431 18.0166 22.5794 18.6983C22.7328 19.38 22.9628 19.9764 23.2696 20.4877C23.5934 20.9819 24.0109 21.3738 24.5221 21.6636C25.0334 21.9533 25.6469 22.0981 26.3626 22.0981C27.2829 22.0981 28.0327 21.6465 28.6121 20.7433C29.2086 19.8401 29.5068 18.4342 29.5068 16.5255C29.5068 15.7416 29.4301 15.0173 29.2768 14.3527C29.1404 13.671 28.9189 13.0831 28.6121 12.5889C28.3054 12.0776 27.9134 11.6771 27.4363 11.3874C26.9591 11.0977 26.3882 10.9529 25.7236 10.9529C24.7181 10.9529 23.9086 11.4045 23.2951 12.3077C22.6816 13.2109 22.3749 14.6168 22.3749 16.5255Z" fill="#245586"/>
<path d="M32.6182 16.5255C32.6182 15.4519 32.7545 14.5061 33.0272 13.6881C33.3169 12.853 33.7259 12.1543 34.2542 11.5919C34.7825 11.0125 35.413 10.578 36.1458 10.2882C36.8956 9.9815 37.7221 9.82812 38.6253 9.82812C39.6819 9.82812 40.5937 9.99002 41.3605 10.3138C42.1274 10.6376 42.7494 11.0977 43.2266 11.6942C43.7208 12.2736 44.0787 12.9723 44.3002 13.7903C44.5388 14.6083 44.6581 15.52 44.6581 16.5255C44.6581 18.6727 44.1128 20.3258 43.0221 21.4846C41.9314 22.6434 40.4658 23.2229 38.6253 23.2229C37.6028 23.2229 36.7167 23.0695 35.9668 22.7627C35.217 22.4389 34.595 21.9873 34.1008 21.4079C33.6066 20.8115 33.2317 20.1042 32.976 19.2862C32.7375 18.4512 32.6182 17.531 32.6182 16.5255ZM35.0722 16.5255C35.0722 17.2924 35.1403 18.0166 35.2767 18.6983C35.43 19.38 35.6601 19.9764 35.9668 20.4877C36.2906 20.9819 36.7082 21.3738 37.2194 21.6636C37.7307 21.9533 38.3442 22.0981 39.0599 22.0981C39.9802 22.0981 40.73 21.6465 41.3094 20.7433C41.9059 19.8401 42.2041 18.4342 42.2041 16.5255C42.2041 15.7416 42.1274 15.0173 41.974 14.3527C41.8377 13.671 41.6162 13.0831 41.3094 12.5889C41.0027 12.0776 40.6107 11.6771 40.1335 11.3874C39.6564 11.0977 39.0855 10.9529 38.4208 10.9529C37.4154 10.9529 36.6059 11.4045 35.9924 12.3077C35.3789 13.2109 35.0722 14.6168 35.0722 16.5255Z" fill="#245586"/>
<path d="M50.4784 10.4417H55.4119V11.1064C55.0881 11.2427 54.7643 11.362 54.4405 11.4642C54.1338 11.5665 53.81 11.6517 53.4692 11.7199C53.2135 12.0607 52.9153 12.4271 52.5745 12.8191C52.2507 13.211 51.9184 13.603 51.5775 13.9949C51.2367 14.3869 50.9044 14.7533 50.5806 15.0941C50.2739 15.435 50.0097 15.7161 49.7882 15.9377C50.0438 16.2785 50.3505 16.696 50.7084 17.1902C51.0833 17.6674 51.4838 18.1787 51.9099 18.724C52.3359 19.2693 52.7705 19.8232 53.2135 20.3856C53.6737 20.9479 54.1253 21.4762 54.5683 21.9704L55.9998 22.5839V23.223H52.8301L52.1399 22.6095C51.2367 21.4847 50.4869 20.4878 49.8904 19.6187C49.294 18.7325 48.7486 17.906 48.2544 17.1391L47.4109 16.8835V21.9704C47.9732 22.0727 48.5271 22.2772 49.0724 22.5839V23.223H43.4231V22.5839C43.9855 22.3113 44.5479 22.1068 45.1102 21.9704V5.78937L43.1675 5.58487V4.92025C43.6446 4.69871 44.2155 4.51977 44.8802 4.38344C45.5448 4.2471 46.1753 4.11929 46.7718 4H47.4109V16.2189H48.0755C48.3481 15.9121 48.6464 15.5713 48.9702 15.1964C49.294 14.8215 49.6177 14.438 49.9415 14.0461C50.2653 13.6371 50.5806 13.2366 50.8874 12.8446C51.1941 12.4527 51.4753 12.0777 51.7309 11.7199C51.3049 11.6006 50.8874 11.3961 50.4784 11.1064V10.4417Z" fill="#245586"/>
</svg>
