<svg width="39" height="39" viewBox="0 0 39 39" fill="none" xmlns="http://www.w3.org/2000/svg">
<path fill-rule="evenodd" clip-rule="evenodd" d="M26.2326 12.4837C26.2326 15.9815 23.397 18.8171 19.8992 18.8171C16.4014 18.8171 13.5659 15.9815 13.5659 12.4837C13.5659 8.98592 16.4014 6.15039 19.8992 6.15039C23.397 6.15039 26.2326 8.98592 26.2326 12.4837ZM25.4409 12.4837C25.4409 15.5443 22.9598 18.0254 19.8992 18.0254C16.8386 18.0254 14.3576 15.5443 14.3576 12.4837C14.3576 9.42315 16.8386 6.94206 19.8992 6.94206C22.9598 6.94206 25.4409 9.42315 25.4409 12.4837Z" fill="#9F9F9F"/>
<path fill-rule="evenodd" clip-rule="evenodd" d="M19.8325 20.0973C15.5669 20.0973 12.7705 21.7011 11.0149 23.8327C9.27196 25.9488 8.58141 28.5514 8.44593 30.5311C8.39337 31.2991 9.02644 31.8796 9.74665 31.8796H30.0422C30.7687 31.8796 31.405 31.289 31.3417 30.5148C31.1798 28.5347 30.4555 25.9361 28.6874 23.8243C26.9069 21.6978 24.0938 20.0973 19.8325 20.0973ZM9.23575 30.5852C9.36331 28.7213 10.0154 26.2914 11.6259 24.336C13.2238 22.3959 15.7917 20.889 19.8325 20.889C23.8695 20.889 26.4567 22.3932 28.0804 24.3325C29.7165 26.2866 30.4003 28.7149 30.5527 30.5793C30.5743 30.8429 30.3571 31.0879 30.0422 31.0879H9.74665C9.4346 31.0879 9.21783 30.847 9.23575 30.5852Z" fill="#9F9F9F"/>
</svg>
