<svg width="24" height="24" viewBox="0 0 24 24" fill="none" xmlns="http://www.w3.org/2000/svg">
<path fill-rule="evenodd" clip-rule="evenodd" d="M13.7965 19.1534C14.0972 19.1528 14.3408 18.9089 14.341 18.6082L14.3456 7.16874C14.3456 7.08363 14.3257 6.99969 14.2875 6.92363L12.4917 3.34948C12.2901 2.94833 11.7173 2.94878 11.5164 3.35025L9.73512 6.90934C9.69734 6.98483 9.6776 7.06805 9.67744 7.15246L9.65815 18.614C9.65777 18.9159 9.90274 19.1607 10.2047 19.1602L13.7965 19.1534ZM13.5244 15.2785L13.5228 18.3356L10.4768 18.3414L10.4806 15.2785L13.5244 15.2785ZM10.4956 7.21818L10.4819 14.4602L13.5247 14.4602L13.5273 7.23317L12.0047 4.20288L10.4956 7.21818Z" fill="#4E5863"/>
</svg>
