<svg width="49" height="49" viewBox="0 0 49 49" fill="none" xmlns="http://www.w3.org/2000/svg">
<path fill-rule="evenodd" clip-rule="evenodd" d="M34.2769 11.4605C33.9635 11.1483 33.4566 11.1486 33.1437 11.4612L21.2433 23.352C21.1548 23.4405 21.0882 23.5485 21.0488 23.6673L19.1996 29.2514C18.992 29.8782 19.5881 30.4733 20.2145 30.2648L25.7679 28.4161C25.8857 28.3769 25.9927 28.3109 26.0807 28.2233L38.0193 16.3248C38.3337 16.0112 38.3335 15.5018 38.0189 15.1884L34.2769 11.4605ZM30.5304 15.7728L33.7111 12.5954L36.8846 15.757L33.6955 18.938L30.5304 15.7728ZM25.2982 27.3041L32.8433 19.7875L29.6791 16.6234L22.1612 24.136L20.5934 28.8704L25.2982 27.3041Z" fill="#4E5863"/>
<path d="M12.0316 13.1808C11.4778 13.1808 11.0288 13.6297 11.0288 14.1836V37.4485C11.0288 38.0023 11.4778 38.4513 12.0316 38.4513H35.2965C35.8503 38.4513 36.2993 38.0023 36.2993 37.4485V21.8048C36.2993 21.4725 36.0299 21.2031 35.6976 21.2031C35.3653 21.2031 35.0959 21.4725 35.0959 21.8048V37.2479H12.2322V14.3841H27.6752C28.0075 14.3841 28.2769 14.1147 28.2769 13.7824C28.2769 13.4501 28.0075 13.1808 27.6752 13.1808H12.0316Z" fill="#4E5863"/>
</svg>
