<svg width="49" height="50" viewBox="0 0 49 50" fill="none" xmlns="http://www.w3.org/2000/svg">
<path fill-rule="evenodd" clip-rule="evenodd" d="M37.752 12.0079C38.279 11.9992 38.7089 12.4257 38.7089 12.9499V29.7568C38.7089 30.3811 38.1317 30.8069 37.5588 30.6964C36.1494 30.4247 34.0466 30.4109 31.8799 30.7988C29.7116 31.187 27.545 31.9659 25.9677 33.2261C25.6504 33.4795 25.2509 33.4889 24.9459 33.3544C24.9415 33.3525 24.9372 33.3506 24.9329 33.3486C24.9286 33.3506 24.9243 33.3525 24.9199 33.3544C24.6149 33.4889 24.2154 33.4795 23.8981 33.2261C22.3209 31.9659 20.1542 31.187 17.986 30.7988C15.8192 30.4109 13.7164 30.4247 12.3071 30.6964C11.7341 30.8069 11.1569 30.3811 11.1569 29.7568V12.9499C11.1569 12.4257 11.5868 11.9992 12.1138 12.0079C18.973 12.1214 23.2137 15.2139 24.9329 17.3089C26.6521 15.2139 30.8928 12.1214 37.752 12.0079ZM25.5 18.4378V32.1541C27.2476 30.8468 29.5072 30.0713 31.68 29.6823C33.8611 29.2918 36.0152 29.2799 37.5747 29.5465V13.1461C30.6429 13.3223 26.695 16.7003 25.5 18.4378ZM24.3658 18.4378C23.1708 16.7003 19.2229 13.3223 12.2911 13.1461V29.5465C13.8506 29.2799 16.0048 29.2918 18.1859 29.6823C20.3587 30.0713 22.6182 30.8468 24.3658 32.1541V18.4378Z" fill="#397CC0"/>
<path d="M37.9981 34.7753C36.6021 34.4095 34.2313 34.3446 31.7813 34.7967C29.3302 35.249 26.9058 36.1995 25.3339 37.7714C25.1125 37.9929 24.7534 37.9929 24.5319 37.7714C22.96 36.1995 20.5356 35.249 18.0845 34.7967C15.6346 34.3446 13.2637 34.4095 11.8678 34.7753C11.5648 34.8547 11.2548 34.6735 11.1754 34.3705C11.096 34.0675 11.2773 33.7575 11.5802 33.6781C13.1816 33.2585 15.7286 33.2085 18.2904 33.6813C20.6673 34.1199 23.1482 35.0251 24.9329 36.5936C26.7176 35.0251 29.1985 34.1199 31.5755 33.6813C34.1372 33.2085 36.6842 33.2585 38.2856 33.6781C38.5886 33.7575 38.7698 34.0675 38.6904 34.3705C38.611 34.6735 38.301 34.8547 37.9981 34.7753Z" fill="#397CC0"/>
</svg>
