<svg width="49" height="49" viewBox="0 0 49 49" fill="none" xmlns="http://www.w3.org/2000/svg">
<path d="M21.4955 17.3553C21.2072 17.3553 20.9734 17.589 20.9734 17.8773C20.9734 18.1657 21.2072 18.3994 21.4955 18.3994H28.3702C28.6585 18.3994 28.8923 18.1657 28.8923 17.8773C28.8923 17.589 28.6585 17.3553 28.3702 17.3553H21.4955Z" fill="#4E5863"/>
<path fill-rule="evenodd" clip-rule="evenodd" d="M14.8492 10.3945C14.3687 10.3945 13.9791 10.7841 13.9791 11.2646V37.6982C13.9518 38.1032 13.9563 38.4796 13.9806 38.7993C14.0014 39.0715 14.2283 39.2817 14.5012 39.2817H33.3161C33.7967 39.2817 34.1862 38.8921 34.1862 38.4116V34.0764H35.0376C35.5229 34.0764 35.9053 33.6821 35.9053 33.2063V11.2646C35.9053 10.7841 35.5157 10.3945 35.0352 10.3945H14.8492ZM15.0232 37.7339V38.2376H33.1421V34.0764H17.9735C17.3039 34.0764 16.8012 34.2618 16.415 34.5448C16.0232 34.8319 15.7233 35.2405 15.5014 35.7241C15.2118 36.3552 15.0705 37.0806 15.0232 37.7339ZM15.0232 11.4386V34.4823C15.2376 34.1915 15.4934 33.9257 15.7979 33.7026C16.3737 33.2807 17.0954 33.0323 17.9735 33.0323H34.8612V11.4386H15.0232Z" fill="#4E5863"/>
</svg>
