<svg width="35" height="35" viewBox="0 0 35 35" fill="none" xmlns="http://www.w3.org/2000/svg">
<path d="M9.1081 10.6413C8.88626 10.8631 8.88626 11.2228 9.1081 11.4446L12.7231 15.0597C12.945 15.2815 13.3046 15.2815 13.5265 15.0597C13.7483 14.8378 13.7483 14.4782 13.5265 14.2563L10.3131 11.043L13.5265 7.82962C13.7483 7.60778 13.7483 7.24812 13.5265 7.02628C13.3046 6.80445 12.945 6.80445 12.7231 7.02628L9.1081 10.6413ZM15.1043 23.966C14.7906 23.966 14.5363 24.2203 14.5363 24.534C14.5363 24.8478 14.7906 25.1021 15.1043 25.1021V23.966ZM9.50977 11.611H26.2663V10.4749H9.50977V11.611ZM25.8402 11.185V24.392H26.9763V11.185H25.8402ZM26.2663 23.966H15.1043V25.1021H26.2663V23.966ZM25.8402 24.392C25.8402 24.1568 26.031 23.966 26.2663 23.966V25.1021C26.6584 25.1021 26.9763 24.7842 26.9763 24.392H25.8402ZM26.2663 11.611C26.031 11.611 25.8402 11.4203 25.8402 11.185H26.9763C26.9763 10.7928 26.6584 10.4749 26.2663 10.4749V11.611Z" fill="#4E5863"/>
</svg>
