<svg width="39" height="39" viewBox="0 0 39 39" fill="none" xmlns="http://www.w3.org/2000/svg">
<path fill-rule="evenodd" clip-rule="evenodd" d="M25.808 25.4478C23.8308 27.2806 21.1839 28.4011 18.2752 28.4011C12.1541 28.4011 7.19189 23.4389 7.19189 17.3177C7.19189 11.1966 12.1541 6.23438 18.2752 6.23438C24.3964 6.23438 29.3586 11.1966 29.3586 17.3177C29.3586 20.2454 28.2234 22.908 26.3692 24.8893L32.6014 31.1216C32.756 31.2762 32.756 31.5268 32.6014 31.6814C32.4468 31.836 32.1962 31.836 32.0416 31.6814L25.808 25.4478ZM28.5669 17.3177C28.5669 23.0016 23.9592 27.6094 18.2752 27.6094C12.5913 27.6094 7.98356 23.0016 7.98356 17.3177C7.98356 11.6338 12.5913 7.02604 18.2752 7.02604C23.9592 7.02604 28.5669 11.6338 28.5669 17.3177Z" fill="#9F9F9F"/>
</svg>
