<svg width="24" height="24" viewBox="0 0 24 24" fill="none" xmlns="http://www.w3.org/2000/svg">
<path fill-rule="evenodd" clip-rule="evenodd" d="M12.0016 9.24495C10.4946 9.24495 9.24323 10.4072 9.24323 11.955C9.24323 13.4806 10.4721 14.7535 12.0016 14.7535C13.5329 14.7535 14.7527 13.4787 14.7527 11.955C14.7527 10.409 13.5105 9.24495 12.0016 9.24495ZM10.1359 11.955C10.1359 10.928 10.9594 10.1376 12.0016 10.1376C13.042 10.1376 13.86 10.9262 13.86 11.955C13.86 13.0062 13.0196 13.8608 12.0016 13.8608C10.9818 13.8608 10.1359 13.0044 10.1359 11.955Z" fill="#4E5863"/>
<path fill-rule="evenodd" clip-rule="evenodd" d="M11.2423 3.16016C10.8444 3.16016 10.4841 3.39497 10.3235 3.7589L9.50668 5.60948C9.19375 6.31847 8.45916 6.74461 7.68835 6.66431L5.482 6.43446C5.08936 6.39356 4.70917 6.58648 4.51035 6.92753L3.82757 8.09869C3.62487 8.44639 3.64932 8.88152 3.88971 9.20432L5.18174 10.9393C5.65112 11.5696 5.65317 12.4327 5.1868 13.0652L3.88591 14.8295C3.64809 15.152 3.62479 15.5851 3.82662 15.9313L4.50877 17.1013C4.70905 17.4449 5.09316 17.6379 5.48832 17.5935L7.67977 17.3477C8.4551 17.2607 9.19712 17.6872 9.51216 18.401L10.3235 20.2391C10.4841 20.6031 10.8444 20.8379 11.2423 20.8379H12.7377C13.1355 20.8379 13.4958 20.6031 13.6564 20.2391L14.4677 18.401C14.7828 17.6872 15.5248 17.2607 16.3001 17.3477L18.495 17.5939C18.887 17.6379 19.2685 17.4483 19.4701 17.1091L20.169 15.9337C20.3742 15.5886 20.3541 15.1544 20.118 14.8297L18.8276 13.0558C18.3704 12.4272 18.3724 11.575 18.8326 10.9485L20.1142 9.20408C20.3529 8.87912 20.3741 8.44287 20.1681 8.09627L19.4685 6.91974C19.2684 6.5831 18.8908 6.39353 18.5013 6.43411L16.2916 6.66431C15.5207 6.74461 14.7862 6.31847 14.4732 5.60948L13.6564 3.7589C13.4958 3.39497 13.1355 3.16016 12.7377 3.16016H11.2423ZM11.1402 4.11937C11.158 4.07893 11.1981 4.05284 11.2423 4.05284H12.7377C12.7819 4.05284 12.8219 4.07893 12.8397 4.11937L13.6566 5.96995C14.126 7.03343 15.2278 7.67264 16.3841 7.55219L18.5938 7.32199C18.6371 7.31748 18.679 7.33854 18.7012 7.37595L19.4008 8.55248C19.4237 8.59099 19.4213 8.63946 19.3948 8.67557L18.1132 10.42C17.4229 11.3597 17.4199 12.638 18.1057 13.5809L19.3961 15.3548C19.4223 15.3909 19.4245 15.4392 19.4017 15.4775L18.7028 16.6529C18.6804 16.6906 18.6381 16.7117 18.5945 16.7068L16.3997 16.4605C15.2367 16.3301 14.1236 16.9699 13.6511 18.0405L12.8397 19.8787C12.8219 19.9191 12.7819 19.9452 12.7377 19.9452H11.2423C11.1981 19.9452 11.158 19.9191 11.1402 19.8787L10.3288 18.0405C9.85627 16.9699 8.74324 16.3301 7.58024 16.4605L5.3888 16.7064C5.34489 16.7113 5.30221 16.6899 5.27996 16.6517L4.59782 15.4817C4.57539 15.4432 4.57798 15.3951 4.6044 15.3593L5.90529 13.5949C6.60485 12.6462 6.60177 11.3515 5.8977 10.4061L4.60567 8.67114C4.57896 8.63527 4.57625 8.58692 4.59877 8.54829L5.28154 7.37713C5.30364 7.33923 5.34588 7.3178 5.38951 7.32234L7.59585 7.55219C8.75207 7.67264 9.85395 7.03343 10.3234 5.96995L11.1402 4.11937Z" fill="#4E5863"/>
</svg>
