<svg width="24" height="24" viewBox="0 0 24 24" fill="none" xmlns="http://www.w3.org/2000/svg">
<path fill-rule="evenodd" clip-rule="evenodd" d="M16.8722 4.56055C15.4544 4.56055 14.305 5.70993 14.305 7.12777C14.305 7.14771 14.3052 7.16759 14.3057 7.18742L8.83405 10.0842C8.38049 9.68042 7.78277 9.43512 7.12777 9.43512C5.70993 9.43512 4.56055 10.5845 4.56055 12.0023C4.56055 13.4202 5.70993 14.5696 7.12777 14.5696C7.78466 14.5696 8.38392 14.3228 8.83796 13.917L14.3057 16.8117C14.3052 16.8318 14.305 16.852 14.305 16.8722C14.305 18.2901 15.4544 19.4395 16.8722 19.4395C18.2901 19.4395 19.4395 18.2901 19.4395 16.8722C19.4395 15.4544 18.2901 14.305 16.8722 14.305C15.8211 14.305 14.9175 14.9368 14.5204 15.8413L9.42731 13.145C9.59864 12.8009 9.69499 12.4128 9.69499 12.0023C9.69499 11.5901 9.59781 11.2005 9.42512 10.8553L14.5201 8.15797C14.917 9.06289 15.8208 9.69499 16.8722 9.69499C18.2901 9.69499 19.4395 8.5456 19.4395 7.12777C19.4395 5.70993 18.2901 4.56055 16.8722 4.56055ZM15.2631 7.12777C15.2631 6.23906 15.9835 5.51862 16.8722 5.51862C17.7609 5.51862 18.4814 6.23906 18.4814 7.12777C18.4814 8.01647 17.7609 8.73691 16.8722 8.73691C15.9835 8.73691 15.2631 8.01647 15.2631 7.12777ZM15.2631 16.8722C15.2631 15.9835 15.9835 15.2631 16.8722 15.2631C17.7609 15.2631 18.4814 15.9835 18.4814 16.8722C18.4814 17.7609 17.7609 18.4814 16.8722 18.4814C15.9835 18.4814 15.2631 17.7609 15.2631 16.8722ZM7.12777 10.3932C6.23906 10.3932 5.51862 11.1136 5.51862 12.0023C5.51862 12.891 6.23906 13.6115 7.12777 13.6115C8.01647 13.6115 8.73691 12.891 8.73691 12.0023C8.73691 11.1136 8.01647 10.3932 7.12777 10.3932Z" fill="#4E5863"/>
</svg>
