<svg width="35" height="35" viewBox="0 0 35 35" fill="none" xmlns="http://www.w3.org/2000/svg">
<path fill-rule="evenodd" clip-rule="evenodd" d="M10.9665 9.19234C10.4897 9.19234 10.1032 9.57887 10.1032 10.0557C10.1032 10.5325 10.4897 10.919 10.9665 10.919C11.4433 10.919 11.8298 10.5325 11.8298 10.0557C11.8298 9.57887 11.4433 9.19234 10.9665 9.19234ZM10.6787 10.0557C10.6787 9.89673 10.8076 9.76789 10.9665 9.76789C11.1254 9.76789 11.2543 9.89673 11.2543 10.0557C11.2543 10.2146 11.1254 10.3434 10.9665 10.3434C10.8076 10.3434 10.6787 10.2146 10.6787 10.0557Z" fill="currentColor"/>
<path fill-rule="evenodd" clip-rule="evenodd" d="M5.87042 7.94531C5.61218 7.94531 5.40283 8.15466 5.40283 8.4129V15.1517C5.40283 15.41 5.61218 15.6193 5.87042 15.6193H12.6093C12.8675 15.6193 13.0769 15.41 13.0769 15.1517V8.4129C13.0769 8.15466 12.8675 7.94531 12.6093 7.94531H5.87042ZM5.97838 15.0438V13.8219L8.01999 12.0536C8.20094 11.8969 8.46976 11.8976 8.64989 12.0552L12.0644 15.0438H5.97838ZM7.64317 11.6185L5.97838 13.0605V8.52086H12.5013V14.6613L9.02896 11.6221C8.63266 11.2753 8.04127 11.2737 7.64317 11.6185Z" fill="currentColor"/>
<path fill-rule="evenodd" clip-rule="evenodd" d="M30.1754 27.396C30.2143 27.5125 30.1277 27.6328 30.0049 27.6328H27.6836C27.6051 27.6328 27.5357 27.582 27.5121 27.5072L26.3528 23.8395C26.3291 23.7647 26.2598 23.7139 26.1813 23.7139H19.4628C19.3843 23.7139 19.3149 23.7647 19.2913 23.8395L18.132 27.5072C18.1083 27.582 18.039 27.6328 17.9605 27.6328H15.6389C15.5162 27.6328 15.4295 27.5126 15.4683 27.3962L21.227 10.098C21.2515 10.0245 21.3202 9.97498 21.3976 9.97498H24.2241C24.3014 9.97498 24.3701 10.0244 24.3946 10.0978L30.1754 27.396ZM25.3478 21.4391C25.4691 21.4391 25.5556 21.3214 25.5195 21.2057L22.993 13.1127C22.9405 12.9446 22.7027 12.9443 22.6498 13.1123L20.1028 21.2053C20.0663 21.3211 20.1529 21.4391 20.2743 21.4391H25.3478Z" fill="currentColor"/>
<path d="M11.4094 20.8899C11.4094 21.0625 11.5494 21.2025 11.722 21.2025H13.7225C13.8952 21.2025 14.0351 21.0625 14.0351 20.8899V18.806C14.0351 18.6334 13.8952 18.4934 13.7225 18.4934C13.5499 18.4934 13.4099 18.6334 13.4099 18.806V20.0677L11.2394 17.6259C11.18 17.5591 11.095 17.5209 11.0057 17.5209C10.9165 17.5209 10.8314 17.5591 10.7721 17.6259L9.52388 19.0301L7.28772 16.5145C7.17303 16.3854 6.97545 16.3738 6.84643 16.4885C6.7174 16.6032 6.70577 16.8008 6.82047 16.9298L9.29025 19.7083C9.34957 19.775 9.4346 19.8132 9.52388 19.8132C9.61317 19.8132 9.69819 19.775 9.75751 19.7083L11.0057 18.304L13.0264 20.5773H11.722C11.5494 20.5773 11.4094 20.7173 11.4094 20.8899Z" fill="currentColor"/>
</svg>
