<svg width="35" height="35" viewBox="0 0 35 35" fill="none" xmlns="http://www.w3.org/2000/svg">
<path d="M19.0038 25.4065C19.0375 25.5072 18.9626 25.6112 18.8564 25.6112H16.7512C16.6834 25.6112 16.6234 25.5673 16.603 25.5026L15.5556 22.1892C15.5352 22.1245 15.4752 22.0806 15.4074 22.0806H9.34502C9.27722 22.0806 9.21724 22.1245 9.19681 22.1892L8.14946 25.5026C8.12902 25.5673 8.06905 25.6112 8.00125 25.6112H5.89579C5.78972 25.6112 5.71481 25.5073 5.74831 25.4067L10.9408 9.80946C10.9619 9.74596 11.0213 9.70312 11.0882 9.70312H13.6441C13.7109 9.70312 13.7703 9.74588 13.7915 9.80929L19.0038 25.4065ZM14.6607 20.0312C14.7655 20.0312 14.8403 19.9295 14.809 19.8295L12.524 12.5099C12.4786 12.3646 12.2731 12.3644 12.2274 12.5096L9.92376 19.8291C9.89224 19.9293 9.96703 20.0312 10.072 20.0312H14.6607Z" fill="#4E5863"/>
<path d="M27.6477 25.1786C27.6103 25.0123 27.2399 24.9183 27.115 25.0343C26.5519 25.5572 25.5991 25.875 24.3614 25.875C21.7235 25.875 20.0597 24.5764 20.0597 22.2632C20.0597 19.9703 21.7235 18.6514 24.3614 18.6514C25.5466 18.6514 26.545 18.955 27.1351 19.5091C27.258 19.6245 27.5673 19.5336 27.5673 19.365V18.2659C27.5673 16.7238 26.7557 15.831 25.1121 15.831C23.7084 15.831 22.9604 16.4116 22.7599 17.483C22.7456 17.5592 22.6804 17.6166 22.6029 17.6166H20.6528C20.5626 17.6166 20.4911 17.5396 20.5005 17.4498C20.7268 15.2964 22.2828 13.9845 25.1121 13.9845C28.2775 13.9845 29.8196 15.6687 29.8196 18.2659V24.0488C29.8196 24.5181 29.8888 25.0151 30.0044 25.3911C30.0371 25.4973 29.9605 25.6112 29.8493 25.6112H27.8895C27.8291 25.6112 27.7737 25.5764 27.7514 25.5203C27.7103 25.4173 27.6756 25.3027 27.6477 25.1786ZM24.9295 24.0691C26.6745 24.0691 27.5876 23.4604 27.5876 22.2632C27.5876 21.0863 26.6745 20.4573 24.9295 20.4573C23.2048 20.4573 22.2917 21.0863 22.2917 22.2632C22.2917 23.4604 23.2048 24.0691 24.9295 24.0691Z" fill="#4E5863"/>
</svg>
