<svg width="35" height="35" viewBox="0 0 35 35" fill="none" xmlns="http://www.w3.org/2000/svg">
<path d="M16.4075 13.7209V14.8476C16.4075 18.366 15.1326 20.7075 12.2795 21.5688C12.2261 21.585 12.1884 21.6341 12.1884 21.69V22.724C12.1884 22.8057 12.2666 22.8652 12.3455 22.8437C16.1513 21.8062 17.7597 18.9583 17.7597 14.6849V12.519C17.7597 12.4498 17.7036 12.3938 17.6345 12.3938H12.3762C12.3071 12.3938 12.251 12.4498 12.251 12.519V13.4705C12.251 13.5396 12.3071 13.5957 12.3762 13.5957H16.2823C16.3515 13.5957 16.4075 13.6517 16.4075 13.7209Z" fill="currentColor"/>
<path d="M21.1274 12.3187C21.1274 12.2495 21.0714 12.1935 21.0022 12.1935H19.888C19.8188 12.1935 19.7628 12.2495 19.7628 12.3187V23.4236C19.7628 23.4927 19.8188 23.5488 19.888 23.5488H21.0022C21.0714 23.5488 21.1274 23.4927 21.1274 23.4236V18.1403C21.1274 18.0711 21.1835 18.0151 21.2526 18.0151H22.78C22.8492 18.0151 22.9052 17.959 22.9052 17.8899V16.9509C22.9052 16.8818 22.8492 16.8257 22.78 16.8257H21.2526C21.1835 16.8257 21.1274 16.7697 21.1274 16.7005V12.3187Z" fill="currentColor"/>
<path fill-rule="evenodd" clip-rule="evenodd" d="M7.53076 7.99748C7.53076 7.91905 7.59434 7.85547 7.67277 7.85547H27.4201C27.4985 7.85547 27.5621 7.91905 27.5621 7.99748V27.7448C27.5621 27.8233 27.4985 27.8868 27.4201 27.8868H7.67277C7.59434 27.8868 7.53076 27.8233 7.53076 27.7448V7.99748ZM8.53233 26.8853V8.85704H26.5606V26.8853H8.53233Z" fill="currentColor"/>
</svg>
