<svg width="49" height="49" viewBox="0 0 49 49" fill="none" xmlns="http://www.w3.org/2000/svg">
<path d="M28.8585 20.3272C29.1346 20.5121 29.2087 20.8858 29.0238 21.1619L25.7384 26.0709C25.88 26.2959 25.962 26.5624 25.962 26.848C25.962 27.6549 25.3078 28.3091 24.5009 28.3091C23.6939 28.3091 23.0398 27.6549 23.0398 26.848C23.0398 26.041 23.6939 25.3869 24.5009 25.3869C24.5808 25.3869 24.6592 25.3933 24.7356 25.4056L28.0238 20.4926C28.2086 20.2164 28.5823 20.1424 28.8585 20.3272Z" fill="#4E5863"/>
<path fill-rule="evenodd" clip-rule="evenodd" d="M28.107 10.7988C28.3286 10.7988 28.5081 10.9784 28.5081 11.1999V13.4061C28.5081 13.6276 28.3286 13.8072 28.107 13.8072H25.4997V14.8512C31.6765 15.3608 36.5305 20.5353 36.5305 26.8436C36.5305 33.4895 31.1429 38.8772 24.4969 38.8772C17.851 38.8772 12.4634 33.4895 12.4634 26.8436C12.4634 20.5353 17.3174 15.3608 23.4942 14.8512V13.8072H20.8869C20.6653 13.8072 20.4858 13.6276 20.4858 13.4061V11.1999C20.4858 10.9784 20.6653 10.7988 20.8869 10.7988H28.107ZM35.3272 26.8436C35.3272 32.8249 30.4783 37.6738 24.4969 37.6738C18.5156 37.6738 13.6667 32.8249 13.6667 26.8436C13.6667 20.8622 18.5156 16.0134 24.4969 16.0134C30.4783 16.0134 35.3272 20.8622 35.3272 26.8436Z" fill="#4E5863"/>
</svg>
