<svg width="35" height="35" viewBox="0 0 35 35" fill="none" xmlns="http://www.w3.org/2000/svg">
<path d="M21.3603 17.7419C21.3603 20.365 20.3058 21.7689 17.804 21.7689C15.2815 21.7689 14.227 20.365 14.227 17.7419V9.19613C14.227 9.03927 14.0999 8.91211 13.943 8.91211H12.1126C11.9558 8.91211 11.8286 9.03927 11.8286 9.19613V18.019C11.8286 21.4179 13.7722 23.6346 17.804 23.6346C21.8359 23.6346 23.7587 21.4179 23.7587 18.019V9.19613C23.7587 9.03927 23.6316 8.91211 23.4747 8.91211H21.6443C21.4875 8.91211 21.3603 9.03927 21.3603 9.19613V17.7419Z" fill="#4E5863"/>
<path d="M12.6357 25.6961C12.322 25.6961 12.0677 25.9504 12.0677 26.2641C12.0677 26.5778 12.322 26.8322 12.6357 26.8322H22.9523C23.266 26.8322 23.5203 26.5778 23.5203 26.2641C23.5203 25.9504 23.266 25.6961 22.9523 25.6961H12.6357Z" fill="#4E5863"/>
</svg>
