<svg width="120" height="120" viewBox="0 0 120 120" fill="none" xmlns="http://www.w3.org/2000/svg">
<g style="mix-blend-mode:multiply" opacity="0.56">
<path d="M53.4325 48.4672C59.8027 48.4672 64.9669 43.3031 64.9669 36.9328C64.9669 30.5626 59.8027 25.3984 53.4325 25.3984C47.0622 25.3984 41.8981 30.5626 41.8981 36.9328C41.8981 43.3031 47.0622 48.4672 53.4325 48.4672Z" fill="black"/>
</g>
<path d="M53.4325 57.8386C64.9786 57.8386 74.3386 48.4786 74.3386 36.9325C74.3386 25.3863 64.9786 16.0264 53.4325 16.0264C41.8863 16.0264 32.5264 25.3863 32.5264 36.9325C32.5264 48.4786 41.8863 57.8386 53.4325 57.8386Z" fill="#397CC0" stroke="#272D34" stroke-width="4.32541"/>
<g style="mix-blend-mode:multiply" opacity="0.56">
<path d="M53.4325 48.4672C59.8027 48.4672 64.9669 43.3031 64.9669 36.9328C64.9669 30.5626 59.8027 25.3984 53.4325 25.3984C47.0622 25.3984 41.8981 30.5626 41.8981 36.9328C41.8981 43.3031 47.0622 48.4672 53.4325 48.4672Z" fill="black"/>
</g>
<path d="M47.585 98.7114C47.7142 98.9341 47.8596 99.1839 48.0176 99.4552C48.9711 101.093 50.38 103.512 51.4009 105.476C51.9205 106.476 52.953 107.138 54.1101 107.138H82.3768C83.6905 107.138 84.8513 106.286 85.243 105.031C85.3049 104.833 85.368 104.631 85.4321 104.425C86.4246 101.248 87.6715 97.2568 88.693 93.5098C89.7685 89.5644 90.6362 85.7466 90.6362 83.437V64.4998C90.6362 62.4724 89.0184 60.7874 86.982 60.7874C84.9462 60.7874 83.3286 62.4727 83.3286 64.4999L83.3292 72.5749C83.3291 73.5549 82.5343 74.35 81.5541 74.35C80.5741 74.35 79.7792 73.5549 79.7792 72.5749V59.9563C79.7792 57.9286 78.1604 56.2444 76.1242 56.2444C74.0884 56.2444 72.4706 57.9291 72.4706 59.9563V68.9526C72.4706 69.9335 71.6758 70.7277 70.6955 70.7277C69.7156 70.7277 68.9209 69.9335 68.9209 68.9526V56.3348C68.9209 54.3079 67.3025 52.6243 65.2667 52.6243C63.2314 52.6243 61.6131 54.308 61.6131 56.3348V65.3333C61.6131 66.3134 60.8181 67.1082 59.8382 67.1082C58.8584 67.1082 58.0634 66.3134 58.0634 65.3333V39.6658C58.0634 37.6489 56.455 35.9316 54.4084 35.9316C52.3619 35.9316 50.7539 37.6491 50.7539 39.6658V79.5439C50.7539 80.2833 50.2953 80.9456 49.6028 81.2056C48.9111 81.4654 48.1292 81.2687 47.6432 80.7123L36.9408 68.4695L36.9097 68.4339L36.8753 68.4013C36.1858 67.7489 35.2837 67.3882 34.3316 67.3834L34.3237 67.3833L34.3158 67.3834C33.3623 67.3936 32.4397 67.7405 31.7445 68.4372L32.452 69.1431L31.7453 68.4364C30.8782 69.3035 30.833 70.4546 31.0155 71.3924C31.1992 72.3358 31.6462 73.278 32.07 74.0233M47.585 98.7114C45.9889 95.9594 43.8638 92.7202 41.5911 89.2561L41.59 89.2543M47.585 98.7114L41.59 89.2543M32.07 74.0233C35.1758 79.4793 38.5925 84.6867 41.59 89.2543M32.07 74.0233L41.59 89.2543" stroke="white" stroke-width="2"/>
</svg>
