<svg width="30" height="31" viewBox="0 0 30 31" fill="none" xmlns="http://www.w3.org/2000/svg">
<path d="M8.90688 18.9171V13.4799H4.08929V18.9171H2.29237V6.77245H4.08929V11.9154H8.90688V6.77245H10.7038V18.9171H8.90688ZM19.4262 11.0506C19.4122 12.1146 19.1882 12.7306 18.3762 13.6546L14.9462 17.5606H19.5802V18.9186H12.8462V17.6866L17.1022 12.8286C17.6482 12.2126 17.8582 11.7086 17.8582 11.0646C17.8582 9.93062 17.1162 9.13262 16.0662 9.13262C14.9462 9.13262 14.2742 9.90262 14.2742 11.0646V11.3586H12.6922V11.0506C12.6922 9.23062 13.9102 7.76062 16.0662 7.76062C18.2222 7.76062 19.4262 9.23062 19.4262 11.0506Z" fill="#272D34"/>
<path d="M0.808594 22.9326H29.1914M0.808594 24.9297H26.457M0.808594 26.9268H22.1719" stroke="#E5E9EC"/>
</svg>
