<svg width="30" height="31" viewBox="0 0 30 31" fill="none" xmlns="http://www.w3.org/2000/svg">
<path d="M8.79067 18.9171V13.4799H3.97307V18.9171H2.17616V6.77245H3.97307V11.9154H8.79067V6.77245H10.5876V18.9171H8.79067ZM18.786 15.3006C18.786 13.8766 17.874 13.0286 16.594 13.0286H15.298V11.4926H16.594C17.714 11.4926 18.434 10.7246 18.434 9.62062C18.434 8.46862 17.65 7.73262 16.562 7.73262C15.426 7.73262 14.69 8.46862 14.69 9.62062V9.74862H12.882V9.47662C12.882 7.58862 14.242 6.16462 16.562 6.16462C18.882 6.16462 20.226 7.58862 20.226 9.47662C20.226 10.7726 19.49 11.8766 18.322 12.2446C19.698 12.6446 20.594 13.7326 20.594 15.4126C20.594 17.6846 18.914 19.1246 16.562 19.1246C14.21 19.1246 12.498 17.6846 12.498 15.3646V15.1726H14.322V15.2686C14.322 16.7406 15.266 17.5566 16.562 17.5566C17.826 17.5566 18.786 16.7566 18.786 15.3006Z" fill="#272D34"/>
<path d="M29.1914 23.9326H0.808594V22.9326H29.1914V23.9326Z" fill="#E5E9EC"/>
<path d="M26.457 25.9297H0.808594V24.9297H26.457V25.9297Z" fill="#E5E9EC"/>
<path d="M0.808594 27.9268H22.1719V26.9268H0.808594V27.9268Z" fill="#E5E9EC"/>
</svg>
