<svg width="30" height="31" viewBox="0 0 30 31" fill="none" xmlns="http://www.w3.org/2000/svg">
<path d="M2.98438 3.91504H5.73828V27.9443H2.98438V3.91504Z" fill="#272D34"/>
<path d="M13.4137 4.49805H13.9515V9.11415H13.4137V4.49805ZM11.4801 6.28866H12.5354V6.75163H11.4801V6.28866ZM12.2766 4.6206H12.8145V8.95756H12.2766V4.6206ZM8.82478 5.09038H11.6911V5.54654H8.82478V5.09038ZM8.78393 8.06566L8.72266 7.58907C9.54647 7.58907 10.8741 7.57545 11.8341 7.4529L11.8545 7.87502C10.8741 8.04523 9.59413 8.06566 8.78393 8.06566ZM9.34903 5.41718H9.86647V7.70481H9.34903V5.41718ZM10.6426 5.41718H11.1601V7.70481H10.6426V5.41718ZM9.95498 10.0537H14.1285V10.5167H9.95498V10.0537ZM9.95498 8.57629H10.5201V10.2988H9.95498V8.57629Z" fill="#9F9F9F"/>
<path d="M15.0063 7.73204H20.5688V8.19502H15.0063V7.73204ZM15.728 10.0537H19.956V10.5167H15.728V10.0537ZM15.728 8.73288H16.2931V10.1967H15.728V8.73288ZM17.7909 4.7023C19.105 4.7023 19.956 5.16527 19.956 5.93462C19.956 6.69716 19.105 7.16014 17.7909 7.16014C16.4701 7.16014 15.6259 6.69716 15.6259 5.93462C15.6259 5.16527 16.4701 4.7023 17.7909 4.7023ZM17.7909 5.16527C16.8241 5.16527 16.2046 5.45122 16.2046 5.93462C16.2046 6.41802 16.8241 6.70397 17.7909 6.70397C18.7577 6.70397 19.3773 6.41802 19.3773 5.93462C19.3773 5.45122 18.7577 5.16527 17.7909 5.16527Z" fill="#9F9F9F"/>
<path d="M11.2758 13.1144H11.8681C11.8681 14.6463 10.9286 15.7288 9.06308 16.219L8.84521 15.7765C10.5065 15.3408 11.2758 14.4693 11.2758 13.3663V13.1144ZM9.12435 13.1144H11.6094V13.5706H9.12435V13.1144ZM11.2758 14.1561V14.551L8.91329 14.728L8.81797 14.2718L11.2758 14.1561ZM12.9575 12.8489H13.5226V16.0556H12.9575V12.8489ZM13.366 14.2514H14.4349V14.7212H13.366V14.2514ZM9.61456 16.3416H13.5226V17.8122H10.1865V18.6973H9.62818V17.3833H12.9643V16.791H9.61456V16.3416ZM9.62818 18.4794H13.7473V18.922H9.62818V18.4794Z" fill="#9F9F9F"/>
<path d="M15.0131 17.7509H20.5892V18.2207H15.0131V17.7509ZM17.505 16.2803H18.0701V17.8871H17.505V16.2803ZM15.6667 13.2846H16.225V14.3808H19.3637V13.2846H19.922V16.4301H15.6667V13.2846ZM16.225 14.8369V15.9671H19.3637V14.8369H16.225Z" fill="#9F9F9F"/>
<path d="M25.4362 12.8421H26.0082V19.0105H25.4362V12.8421ZM25.872 15.2727H27.0158V15.7493H25.872V15.2727ZM21.535 17.002H22.0184C23.1554 17.002 23.952 16.9612 24.8712 16.791L24.9324 17.2675C23.9861 17.4446 23.1759 17.4786 22.0184 17.4786H21.535V17.002ZM21.535 13.4412H24.3946V13.9042H22.0933V17.2131H21.535V13.4412Z" fill="#9F9F9F"/>
<path d="M12.9575 21.1997H13.5226V24.8831H12.9575V21.1997ZM13.366 22.7861H14.4349V23.2627H13.366V22.7861ZM11.2554 21.6491H11.8613C11.8613 23.2286 10.7652 24.3792 8.98818 24.9035L8.74989 24.4473C10.3158 23.9844 11.2554 23.0584 11.2554 21.9078V21.6491ZM9.02223 21.6491H11.5754V22.1188H9.02223V21.6491ZM11.5958 24.958C12.8145 24.958 13.5907 25.4073 13.5907 26.1494C13.5907 26.8915 12.8145 27.3409 11.5958 27.3409C10.3703 27.3409 9.58732 26.8915 9.58732 26.1494C9.58732 25.4073 10.3703 24.958 11.5958 24.958ZM11.5958 25.4073C10.7107 25.4073 10.1456 25.6865 10.1456 26.1494C10.1456 26.6124 10.7107 26.8915 11.5958 26.8915C12.4809 26.8915 13.046 26.6124 13.046 26.1494C13.046 25.6865 12.4809 25.4073 11.5958 25.4073Z" fill="#9F9F9F"/>
<path d="M19.1798 21.1997H19.7449V27.3545H19.1798V21.1997ZM19.6088 23.7256H20.7526V24.2022H19.6088V23.7256ZM14.9791 22.1801H18.6079V22.6431H14.9791V22.1801ZM16.8173 23.1537C17.6888 23.1537 18.3152 23.7393 18.3152 24.5699C18.3152 25.4005 17.6888 25.986 16.8173 25.986C15.9527 25.986 15.3195 25.4005 15.3195 24.5699C15.3195 23.7393 15.9527 23.1537 16.8173 23.1537ZM16.8173 23.6235C16.259 23.6235 15.8573 24.0116 15.8573 24.5699C15.8573 25.1214 16.259 25.5162 16.8173 25.5162C17.3756 25.5162 17.7773 25.1214 17.7773 24.5699C17.7773 24.0116 17.3756 23.6235 16.8173 23.6235ZM16.5246 21.2746H17.0897V22.3912H16.5246V21.2746Z" fill="#9F9F9F"/>
<path d="M25.4362 21.1929H26.0082V27.3613H25.4362V21.1929ZM25.872 23.6235H27.0158V24.1001H25.872V23.6235ZM21.535 25.3528H22.0184C23.1554 25.3528 23.952 25.312 24.8712 25.1418L24.9324 25.6184C23.9861 25.7954 23.1759 25.8294 22.0184 25.8294H21.535V25.3528ZM21.535 21.792H24.3946V22.255H22.0933V25.5639H21.535V21.792Z" fill="#9F9F9F"/>
</svg>
