<svg width="50" height="60" viewBox="0 0 50 60" fill="none" xmlns="http://www.w3.org/2000/svg">
<path d="M36.7632 35.2228V30.9355H37.7632V35.2228H36.7632Z" fill="#686868"/>
<path d="M38.107 35.2228V30.9355H39.107V35.2228H38.107Z" fill="#686868"/>
<path d="M7.60938 26.2075C8.07079 26.2075 8.44483 25.8335 8.44483 25.3721C8.44483 24.9107 8.07079 24.5366 7.60938 24.5366C7.14798 24.5366 6.77393 24.9107 6.77393 25.3721C6.77393 25.8335 7.14798 26.2075 7.60938 26.2075Z" fill="#686868"/>
<path d="M10.5532 25.3721C10.5532 25.8335 10.1792 26.2075 9.71778 26.2075C9.25637 26.2075 8.88233 25.8335 8.88233 25.3721C8.88233 24.9107 9.25637 24.5366 9.71778 24.5366C10.1792 24.5366 10.5532 24.9107 10.5532 25.3721Z" fill="#686868"/>
<path d="M9.78799 43.9991V39.7119H10.788V43.9991H9.78799Z" fill="#686868"/>
<path d="M11.1317 39.7119V43.9991H12.1317V39.7119H11.1317Z" fill="#686868"/>
<path fill-rule="evenodd" clip-rule="evenodd" d="M32.8657 13.2568C30.7079 13.2568 28.913 14.8109 28.5392 16.8609C28.1284 16.7062 27.6367 16.5763 27.1013 16.5217C26.3854 16.4488 25.5764 16.5096 24.7771 16.8396C24.3949 14.8001 22.605 13.2568 20.4546 13.2568C18.1701 13.2568 16.2924 14.9986 16.0772 17.2267C15.8463 17.3135 15.562 17.4173 15.2464 17.5324C14.6525 17.7492 13.948 18.0063 13.2805 18.267C12.1671 18.702 11.0066 19.202 10.3073 19.6805C9.60347 20.162 9.27309 20.6326 9.18805 21.0903C9.15453 21.2707 9.16378 21.4273 9.18575 21.5527H5.65918C4.83112 21.5527 4.15918 22.2234 4.15918 23.0522L4.15918 27.692C4.15918 28.5207 4.83111 29.1914 5.65918 29.1914H9.39675C9.34157 29.3477 9.31154 29.5158 9.31155 29.691C9.31158 30.6549 9.31139 32.1173 9.31021 33.1631C9.30903 34.2135 9.30972 35.5641 9.31045 36.4697C9.31059 36.644 9.34046 36.8113 9.39524 36.9668H5.15972C5.02706 36.9668 4.89984 37.0195 4.80607 37.1133C4.71229 37.2072 4.65964 37.3344 4.65972 37.4671L4.66014 38.9957C4.66021 39.8658 4.65999 40.9472 4.65884 41.7927C4.65765 42.663 4.65787 43.7757 4.65839 44.6707L4.65972 46.2428C4.66005 46.5187 4.88381 46.7427 5.15972 46.7427H43.4944C43.7705 46.7427 43.9944 46.5188 43.9944 46.2427V46.2416L44.004 46.2415L44.0161 46.242C44.0224 46.2422 44.0288 46.2423 44.0351 46.2423H45.2528C45.578 46.2423 45.8417 45.9787 45.8417 45.6534C45.8417 45.3281 45.578 45.0645 45.2528 45.0645H43.9944V37.4668C43.9944 37.1907 43.7705 36.9668 43.4944 36.9668H41.8482C41.9032 36.8109 41.9331 36.6431 41.9331 36.4682V29.6905C41.9331 28.8615 41.2609 28.1914 40.4331 28.1914H36.695C36.7503 28.0349 36.7804 27.8665 36.7804 27.691C36.7802 27.0099 36.7802 26.1104 36.7812 25.4193C36.7823 24.6972 36.7821 23.7547 36.7817 23.0507C36.7812 22.2223 36.1093 21.5527 35.282 21.5527H34.9043C36.3068 20.8177 37.2637 19.348 37.2637 17.6548C37.2637 15.2259 35.2946 13.2568 32.8657 13.2568ZM20.4546 21.0527C22.3312 21.0527 23.8525 19.5314 23.8525 17.6548C23.8525 15.7781 22.3312 14.2568 20.4546 14.2568C18.578 14.2568 17.0566 15.7781 17.0566 17.6548C17.0566 19.5314 18.578 21.0527 20.4546 21.0527ZM22.4932 21.5527C23.8241 20.8553 24.7537 19.4961 24.8451 17.9123C25.5619 17.5286 26.3161 17.4469 27 17.5166C27.5857 17.5762 28.1046 17.7459 28.4755 17.9171C28.5022 18.3711 28.5977 18.8066 28.7519 19.2132L28.372 19.4333C27.4256 19.9577 26.9714 20.4713 26.8512 20.9945C26.8007 21.2141 26.8174 21.4041 26.8515 21.5527H22.4932ZM10.2194 21.5527C10.2104 21.5162 10.2015 21.4904 10.1997 21.4852L10.1974 21.4781C10.1874 21.4466 10.1815 21.4279 10.1761 21.4057C10.1664 21.3655 10.1617 21.3242 10.1712 21.273C10.1889 21.1778 10.2847 20.9076 10.872 20.5058C11.4636 20.101 12.5204 19.6376 13.6444 19.1985C14.3237 18.9331 14.9745 18.696 15.5442 18.4885C15.7402 18.417 15.9268 18.3491 16.1014 18.2847C16.3055 19.7076 17.1907 20.9106 18.416 21.5527L10.2194 21.5527ZM30.8271 21.5527C30.1751 21.2111 29.6195 20.7106 29.2114 20.1027L28.8605 20.3059C27.994 20.7854 27.8499 21.1136 27.8258 21.2185C27.8142 21.2689 27.8194 21.3087 27.8323 21.3518C27.8396 21.3764 27.8478 21.3972 27.8619 21.4332L27.8646 21.4402C27.871 21.4565 27.8828 21.4865 27.8927 21.5173C27.8952 21.5254 27.899 21.5375 27.9031 21.5527H30.8271ZM40.4331 29.1914C40.7098 29.1914 40.9331 29.415 40.9331 29.6905V36.4682C40.9331 36.7362 40.7219 36.955 40.4557 36.9668H10.7875C10.5217 36.955 10.3107 36.7365 10.3104 36.4689C10.3097 35.5634 10.309 34.2136 10.3102 33.1643C10.3114 32.1178 10.3116 30.6549 10.3115 29.691C10.3115 29.4151 10.5351 29.1914 10.8117 29.1914H40.4331ZM35.7804 27.6912C35.7805 27.9671 35.5572 28.1909 35.2811 28.1914L5.65918 28.1914C5.38268 28.1914 5.15918 27.9677 5.15918 27.692L5.15918 23.0522C5.15918 22.7764 5.38268 22.5527 5.65918 22.5527L35.282 22.5527C35.5583 22.5527 35.7815 22.776 35.7817 23.0513C35.7821 23.7552 35.7823 24.6968 35.7812 25.4178C35.7802 26.1098 35.7802 27.0101 35.7804 27.6912ZM5.65992 37.9668H10.771C10.784 37.9671 10.7971 37.9673 10.8102 37.9673H40.4331C40.4462 37.9673 40.4592 37.9671 40.4723 37.9668H42.9944V45.7427H5.65921L5.65838 44.6701C5.65787 43.7752 5.65765 42.6633 5.65883 41.794C5.65999 40.9478 5.66021 39.8659 5.66014 38.9956L5.65992 37.9668ZM36.2637 17.6548C36.2637 19.5314 34.7424 21.0527 32.8657 21.0527C30.9891 21.0527 29.4678 19.5314 29.4678 17.6548C29.4678 15.7781 30.9891 14.2568 32.8657 14.2568C34.7424 14.2568 36.2637 15.7781 36.2637 17.6548Z" fill="#686868"/>
</svg>
