<svg width="50" height="60" viewBox="0 0 50 60" fill="none" xmlns="http://www.w3.org/2000/svg">
<path fill-rule="evenodd" clip-rule="evenodd" d="M37.337 14.0777C37.744 19.1654 34.7838 23.7679 30.2763 25.8118C30.1807 25.8551 30.1669 25.9871 30.251 26.0496C30.7801 26.4426 31.3657 26.9651 31.9463 27.5275C32.782 28.3373 33.6283 29.2508 34.3113 30.0272C34.3738 30.0982 34.4772 30.1159 34.5601 30.0703C34.9662 29.847 35.3727 29.6424 35.7773 29.4605C37.1424 28.8469 38.5232 28.4749 39.8152 28.5433C39.9255 28.5492 40.0067 28.6467 39.9968 28.7567L39.9357 29.4416C39.9259 29.5516 39.8288 29.6324 39.7184 29.6275C38.6757 29.5813 37.4898 29.8832 36.2232 30.4525C34.8807 31.056 33.4875 31.9418 32.1398 32.9585C29.5232 34.9323 27.1285 37.361 25.6765 39.0495C25.6045 39.1333 25.4785 39.1435 25.3942 39.072L24.87 38.627C24.7858 38.5556 24.7752 38.4295 24.8472 38.3458C26.3383 36.611 28.7909 34.1224 31.4848 32.0902C32.0716 31.6475 32.6723 31.2247 33.2792 30.835C33.3829 30.7685 33.4038 30.6252 33.322 30.5331C32.6846 29.8157 31.9242 29.0014 31.1764 28.2768C30.6111 27.7292 30.0633 27.2427 29.5877 26.8894C29.3499 26.7127 29.1396 26.5765 28.9617 26.4833C28.9046 26.4534 28.8543 26.4297 28.8104 26.4112C28.7705 26.3943 28.7259 26.3935 28.6844 26.4058C27.8567 26.6517 26.9898 26.8157 26.0927 26.8875C24.0616 27.05 22.1079 26.721 20.3555 26.0029C20.3097 25.9841 20.2583 25.982 20.2141 26.0043C20.1562 26.0335 20.0786 26.0806 19.9805 26.154C19.8197 26.2743 19.6338 26.4422 19.427 26.6545C19.0137 27.0789 18.5502 27.6463 18.0792 28.2768C17.2862 29.3385 16.4962 30.5469 15.924 31.4777C15.8566 31.5873 15.9098 31.7306 16.0316 31.7717C16.0886 31.791 16.1455 31.8104 16.2025 31.83C19.5892 32.9952 23.0041 34.8074 25.0262 37.5415C25.0919 37.6303 25.0705 37.7552 24.9805 37.8191L24.4198 38.2172C24.3297 38.2812 24.2051 38.26 24.1392 38.1713C22.3108 35.7108 19.1544 33.9957 15.8486 32.8584C12.589 31.737 9.26686 31.2054 7.13701 31.0539C7.02683 31.0461 6.94305 30.9512 6.94991 30.841L6.99255 30.1547C6.99941 30.0444 7.09407 29.9605 7.20426 29.9683C9.06186 30.0997 11.7721 30.5069 14.5854 31.3195C14.673 31.3448 14.7666 31.3085 14.8137 31.2305C15.4057 30.2502 16.2976 28.8675 17.2 27.6595C17.6837 27.0118 18.1788 26.403 18.6387 25.9308C18.7402 25.8266 18.8415 25.7274 18.9422 25.6348C19.0467 25.5387 19.0295 25.3654 18.9063 25.2949C15.6035 23.4035 13.2749 20.0296 12.9548 16.0283C12.4319 9.49229 17.4662 3.75715 24.1991 3.2185C30.9321 2.67986 36.8141 7.54168 37.337 14.0777ZM36.2529 14.1644C36.7292 20.1192 32.1427 25.3443 26.0085 25.835C19.8743 26.3258 14.5154 21.8963 14.039 15.9416C13.5626 9.9868 18.1491 4.76169 24.2833 4.27095C30.4175 3.7802 35.7765 8.20966 36.2529 14.1644Z" fill="#397CC0"/>
<path d="M36.1396 34.1697C32.377 35.8506 28.1797 38.3197 25.3082 40.1795C25.2406 40.2232 25.1552 40.2223 25.0885 40.1774C22.4817 38.4214 18.5974 36.1631 14.9163 34.7722C12.9794 34.0403 11.0621 33.5343 9.39916 33.4874C7.7373 33.4404 6.23106 33.8532 5.27462 35.0762L5.2147 35.1528C5.19191 35.1819 5.17765 35.2168 5.17351 35.2536L5.1626 35.3502C5.06673 36.2 5.46904 38.1713 7.37791 40.3869C7.45001 40.4706 7.57704 40.4785 7.65962 40.4052L8.17369 39.9485C8.25627 39.8751 8.2633 39.7485 8.19131 39.6647C6.64389 37.8642 6.27188 36.3529 6.2394 35.6958C6.23696 35.6463 6.25507 35.5985 6.28905 35.5623C6.95613 34.8527 7.99271 34.5357 9.36847 34.5745C10.8568 34.6166 12.6438 35.0762 14.5318 35.7896C18.3017 37.214 22.3276 39.593 24.8824 41.3529L25.0728 41.4841C25.1398 41.5303 25.228 41.5312 25.296 41.4866L25.4893 41.3597C28.3342 39.4923 32.7077 36.8941 36.5832 35.1627C38.5263 34.2947 40.3093 33.6606 41.6975 33.4328C42.3928 33.3187 42.9502 33.3134 43.3639 33.4062C43.5942 33.4579 43.7689 33.5367 43.901 33.6385C43.9615 33.6851 43.9782 33.7667 43.9526 33.8387C43.725 34.4791 43.4223 35.3116 43.1295 36.0782C42.9512 36.5448 42.7779 36.9835 42.6282 37.3383C42.533 37.5641 42.4532 37.7413 42.3916 37.867C42.3431 37.9662 42.3729 38.091 42.4663 38.15L43.0475 38.5174C43.1409 38.5764 43.2641 38.5483 43.3152 38.4504C43.4112 38.2666 43.5197 38.0232 43.6303 37.7611C43.7869 37.39 43.9652 36.9383 44.1455 36.4664C44.5063 35.5218 44.8807 34.4819 45.1154 33.812L45.1671 33.6644C45.1862 33.6099 45.1808 33.5498 45.1523 33.4995L45.0751 33.3636C44.7546 32.7991 44.2199 32.4836 43.602 32.345C42.9969 32.2092 42.2841 32.2344 41.5214 32.3596C39.9934 32.6103 38.1086 33.2901 36.1396 34.1697Z" fill="#397CC0"/>
<path d="M25.0714 43.6149C24.9621 43.599 24.8606 43.6741 24.8455 43.7835C24.648 45.2068 24.4469 47.3651 24.4522 49.4706C24.4549 50.5732 24.5143 51.6733 24.6642 52.6515C24.7998 53.5371 25.0153 54.3631 25.3577 55.0047C25.4097 55.1021 25.533 55.1322 25.6275 55.0751L26.2161 54.7195C26.3106 54.6624 26.3406 54.5397 26.2904 54.4413C26.0478 53.965 25.8636 53.2989 25.7392 52.4868C25.6004 51.5804 25.5425 50.5385 25.5398 49.4678C25.5346 47.4262 25.7302 45.3231 25.9218 43.9401C25.9369 43.8307 25.8612 43.7298 25.7519 43.7139L25.0714 43.6149Z" fill="#397CC0"/>
<path d="M38.9608 47.1122C38.8566 47.149 38.7918 47.268 38.7767 47.3774C38.7556 47.5296 38.6821 47.7636 38.4705 48.0698C38.1129 48.5868 37.3838 49.266 35.9834 49.9781C35.1011 50.4268 34.1682 50.8036 33.2238 51.182L33.1328 51.2185C32.2262 51.5816 31.3079 51.9495 30.4575 52.3768C28.7477 53.2362 27.2277 54.3775 26.505 56.3423C26.4669 56.446 26.5238 56.5594 26.6286 56.5943L27.281 56.8115C27.3859 56.8464 27.4988 56.7894 27.5376 56.686C28.1278 55.1139 29.3555 54.148 30.9459 53.3486C31.7541 52.9424 32.6344 52.5898 33.5552 52.2209L33.6284 52.1916C34.5674 51.8154 35.5443 51.4216 36.4764 50.9476C37.9791 50.1834 38.8731 49.3999 39.3651 48.6883C39.7886 48.0758 39.9352 47.4779 39.8487 47.0089C39.8287 46.9003 39.713 46.8457 39.6089 46.8826L38.9608 47.1122Z" fill="#397CC0"/>
<path d="M10.7562 49.3487C10.6501 49.3793 10.5889 49.4902 10.6195 49.5963L11.4039 52.3124C11.4287 52.398 11.507 52.4569 11.5961 52.4569L11.8547 52.4569C13.4356 52.4569 15.9945 52.6747 18.4958 53.327C20.9372 53.9638 23.2225 54.9889 24.541 56.5354C24.6126 56.6195 24.7382 56.6342 24.8247 56.5656L25.3635 56.1383C25.45 56.0697 25.4647 55.9437 25.3936 55.8592C23.8551 54.0339 21.2839 52.9302 18.7703 52.2746C16.4408 51.6671 14.0728 51.422 12.4119 51.3771C12.3244 51.3747 12.2483 51.3163 12.224 51.2321L11.6645 49.2945C11.6338 49.1884 11.523 49.1272 11.4168 49.1579L10.7562 49.3487Z" fill="#397CC0"/>
<path fill-rule="evenodd" clip-rule="evenodd" d="M9.04988 48.8139C11.2775 48.6357 12.9389 46.6854 12.7606 44.4578C12.5824 42.2302 10.6321 40.5688 8.40452 40.747C6.17691 40.9252 4.51555 42.8755 4.69376 45.1031C4.87197 47.3307 6.82227 48.9921 9.04988 48.8139ZM8.96315 47.7297C10.592 47.5994 11.8068 46.1733 11.6765 44.5445C11.5462 42.9156 10.1201 41.7008 8.49125 41.8312C6.86241 41.9615 5.64761 43.3875 5.77792 45.0164C5.90823 46.6452 7.3343 47.86 8.96315 47.7297Z" fill="#397CC0"/>
<path fill-rule="evenodd" clip-rule="evenodd" d="M45.3067 42.4409C45.4849 44.6685 43.8235 46.6188 41.5959 46.797C39.3683 46.9752 37.418 45.3138 37.2398 43.0862C37.0616 40.8586 38.7229 38.9083 40.9506 38.7301C43.1782 38.5519 45.1285 40.2133 45.3067 42.4409ZM44.2225 42.5276C44.3528 44.1564 43.138 45.5825 41.5092 45.7128C39.8803 45.8431 38.4543 44.6283 38.3239 42.9995C38.1936 41.3707 39.4084 39.9446 41.0373 39.8143C42.6661 39.684 44.0922 40.8988 44.2225 42.5276Z" fill="#397CC0"/>
</svg>
