<svg width="24" height="24" viewBox="0 0 24 24" fill="none" xmlns="http://www.w3.org/2000/svg">
<path fill-rule="evenodd" clip-rule="evenodd" d="M6.92295 5.09961C5.91595 5.09961 5.09961 5.91595 5.09961 6.92295V17.0763C5.09961 18.0833 5.91595 18.8996 6.92295 18.8996H17.0763C18.0833 18.8996 18.8996 18.0833 18.8996 17.0763V6.92295C18.8996 5.91595 18.0833 5.09961 17.0763 5.09961H6.92295ZM5.89961 6.92295C5.89961 6.35777 6.35777 5.89961 6.92295 5.89961H17.0763C17.6414 5.89961 18.0996 6.35777 18.0996 6.92295V17.0763C18.0996 17.6414 17.6414 18.0996 17.0763 18.0996H6.92295C6.35777 18.0996 5.89961 17.6414 5.89961 17.0763V6.92295ZM16.4994 9.64864C16.6583 9.49517 16.6627 9.24194 16.5092 9.08304C16.3557 8.92415 16.1025 8.91976 15.9436 9.07323L11.1747 13.6795C10.9422 13.9041 10.5735 13.9041 10.341 13.6795L8.05563 11.472C7.89674 11.3185 7.64351 11.3229 7.49003 11.4818C7.33655 11.6407 7.34094 11.894 7.49984 12.0474L9.78521 14.2549C10.3278 14.779 11.1879 14.779 11.7305 14.2549L16.4994 9.64864Z" fill="#4E5863"/>
</svg>
