<svg width="92" height="84" viewBox="0 0 92 84" fill="none" xmlns="http://www.w3.org/2000/svg">
<circle cx="42.2539" cy="42" r="42" fill="#E5E9EC"/>
<circle cx="42.2531" cy="31.8449" r="11.0519" fill="white"/>
<path d="M42.1368 48.2832C55.2161 48.2832 60.0758 55.1091 61.32 60.2805C61.7038 61.8756 60.3507 63.2085 58.7101 63.2085H25.7541C24.1321 63.2085 22.7846 61.9046 23.1353 60.3209C24.2816 55.1447 29.0235 48.2832 42.1368 48.2832Z" fill="white"/>
<circle cx="76.7441" cy="69" r="15" fill="#D7E5F2"/>
<path d="M85.515 65.7882V75.7824C85.515 76.1138 85.2464 76.3824 84.915 76.3824H68.5742C68.2428 76.3824 67.9742 76.1138 67.9742 75.7824V65.7882C67.9742 65.4569 68.2428 65.1882 68.5742 65.1882H72.3827C72.771 65.1882 73.1156 64.9392 73.2373 64.5704L73.932 62.4662C74.0131 62.2204 74.2428 62.0543 74.5017 62.0543H79.0208C79.2825 62.0543 79.514 62.2239 79.5929 62.4734L80.2523 64.5595C80.3706 64.9338 80.7179 65.1882 81.1105 65.1882H84.915C85.2464 65.1882 85.515 65.4569 85.515 65.7882Z" stroke="#4E5863" stroke-width="0.8" stroke-linejoin="round"/>
<circle cx="76.7432" cy="70.2119" r="3.22363" stroke="#4E5863"/>
<circle cx="84.0771" cy="62.4814" r="1.2627" fill="#4E5863"/>
</svg>
