<svg width="18" height="18" viewBox="0 0 18 18" fill="none" xmlns="http://www.w3.org/2000/svg">
<path d="M14.0764 0.765443C13.1391 -0.171815 11.6195 -0.171814 10.6823 0.765444L8.2625 3.1852L8.82819 3.75088L11.2479 1.33113C11.8728 0.70629 12.8858 0.70629 13.5107 1.33113L15.8748 3.69521C16.4996 4.32004 16.4996 5.33311 15.8748 5.95795L11.0353 10.7975C10.4104 11.4223 9.39735 11.4223 8.77251 10.7975L7.59047 9.61541L7.02479 10.1811L8.20683 11.3631C9.14409 12.3004 10.6637 12.3004 11.6009 11.3631L16.4404 6.52363C17.3777 5.58637 17.3777 4.06678 16.4404 3.12952L14.0764 0.765443Z" fill="#4E5863"/>
<path d="M3.06702 16.5027C4.00428 17.44 5.52388 17.44 6.46113 16.5027L8.88089 14.0829L8.3152 13.5173L5.89545 15.937C5.27061 16.5619 4.25754 16.5619 3.63271 15.937L1.26863 13.5729C0.64379 12.9481 0.64379 11.935 1.26863 11.3102L6.10813 6.47069C6.73297 5.84585 7.74604 5.84585 8.37088 6.47069L9.55292 7.65273L10.1186 7.08704L8.93656 5.90501C7.9993 4.96775 6.47971 4.96775 5.54245 5.90501L0.702944 10.7445C-0.234315 11.6818 -0.234315 13.2014 0.702944 14.1386L3.06702 16.5027Z" fill="#4E5863"/>
</svg>
